M48
METRIC,TZ
T1C1.200
T2C1.700
T3C5.000
%
G90
G05
T1
X114503Y-99009
X120471Y-102666
T2
X25432Y-77219
X31532Y-61219
X35768Y-80981
X41868Y-64981
X42305Y-33294
X46907Y-71044
X52641Y-37056
X53057Y-55069
X57243Y-74806
X59232Y-39119
X63393Y-58831
X65357Y-72844
X69568Y-42881
X71532Y-56919
X75693Y-76606
X77682Y-40919
X80732Y-82694
X81868Y-60681
X86907Y-66694
X88018Y-44681
X91068Y-86456
X93032Y-50719
X96187Y-107701
X97243Y-70456
X97332Y-89294
X103368Y-54481
X103507Y-73294
X106313Y-111999
X107668Y-93056
X109657Y-57344
X111686Y-120161
X113843Y-77056
X119464Y-127939
X119993Y-61106
T3
X30600Y-79100
X36700Y-63100
X47473Y-35175
X52075Y-72925
X58225Y-56950
X64400Y-41000
X70525Y-74725
X76700Y-58800
X82850Y-42800
X85900Y-84575
X92075Y-68575
X98200Y-52600
X101250Y-109850
X102500Y-91175
X108675Y-75175
X114825Y-59225
X115575Y-124050
T0
M30
