M48
METRIC,TZ
T1C0.400
T2C0.800
T3C1.000
T4C1.200
%
G90
G05
T1
X34883Y-74550
X43550Y-53125
X55175Y-66600
X62288Y-51788
X73725Y-68125
X79650Y-53500
X83275Y-52575
X89250Y-78275
X95000Y-62275
X104850Y-104175
X105400Y-84275
X109825Y-69900
X114607Y-73600
X116650Y-73000
X117525Y-72275
X118625Y-89275
X119800Y-69500
X119825Y-70875
X119825Y-88300
X120250Y-119450
X126219Y-96019
T2
X130659Y-71665
X130659Y-74205
X130659Y-76745
X130659Y-79285
X130659Y-81825
X130659Y-84365
X130659Y-86905
X130659Y-89445
X130659Y-91985
X133199Y-92195
X135739Y-92195
X138279Y-92195
X140819Y-92195
X143359Y-92195
X145899Y-71665
X145899Y-74205
X145899Y-76745
X145899Y-79285
X145899Y-81825
X145899Y-84365
X145899Y-86905
X145899Y-89445
X145899Y-91985
T4
X24602Y-80961
X28582Y-84644
X30702Y-64961
X34682Y-68644
X41475Y-37036
X45455Y-40719
X46077Y-74786
X50057Y-78469
X52227Y-58811
X56207Y-62494
X58402Y-42861
X62382Y-46544
X64527Y-76586
X68507Y-80269
X70702Y-60661
X74682Y-64344
X76852Y-44661
X79902Y-86436
X80832Y-48344
X83882Y-90119
X86077Y-70436
X90057Y-74119
X92202Y-54461
X95163Y-111394
X96182Y-58144
X96502Y-93036
X98945Y-115281
X100482Y-96719
X102677Y-77036
X106657Y-80719
X108827Y-61086
X109352Y-123201
X111403Y-128222
X112807Y-64769
T3
G00X112084Y-99989
M15
G01X111657Y-99728
M16
G05
G00X112999Y-95625
M15
G01X112573Y-95363
M16
G05
G00X115494Y-102079
M15
G01X115068Y-101818
M16
G05
G00X118052Y-103647
M15
G01X117626Y-103386
M16
G05
T0
M30
