%TF.GenerationSoftware,KiCad,Pcbnew,(6.0.11)*%
%TF.CreationDate,2024-04-14T00:28:17+09:00*%
%TF.ProjectId,haqua34_right,68617175-6133-4345-9f72-696768742e6b,rev?*%
%TF.SameCoordinates,Original*%
%TF.FileFunction,Legend,Bot*%
%TF.FilePolarity,Positive*%
%FSLAX46Y46*%
G04 Gerber Fmt 4.6, Leading zero omitted, Abs format (unit mm)*
G04 Created by KiCad (PCBNEW (6.0.11)) date 2024-04-14 00:28:17*
%MOMM*%
%LPD*%
G01*
G04 APERTURE LIST*
G04 Aperture macros list*
%AMHorizOval*
0 Thick line with rounded ends*
0 $1 width*
0 $2 $3 position (X,Y) of the first rounded end (center of the circle)*
0 $4 $5 position (X,Y) of the second rounded end (center of the circle)*
0 Add line between two ends*
20,1,$1,$2,$3,$4,$5,0*
0 Add two circle primitives to create the rounded ends*
1,1,$1,$2,$3*
1,1,$1,$4,$5*%
G04 Aperture macros list end*
%ADD10C,0.200000*%
%ADD11C,0.150000*%
%ADD12C,0.350000*%
%ADD13HorizOval,1.000000X0.213160X0.130625X-0.213160X-0.130625X0*%
G04 APERTURE END LIST*
D10*
X40845238Y-91861904D02*
X40845238Y-92433333D01*
X40883333Y-92547619D01*
X40959523Y-92623809D01*
X41073809Y-92661904D01*
X41150000Y-92661904D01*
X40083333Y-92661904D02*
X40464285Y-92661904D01*
X40464285Y-91861904D01*
X39359523Y-92585714D02*
X39397619Y-92623809D01*
X39511904Y-92661904D01*
X39588095Y-92661904D01*
X39702380Y-92623809D01*
X39778571Y-92547619D01*
X39816666Y-92471428D01*
X39854761Y-92319047D01*
X39854761Y-92204761D01*
X39816666Y-92052380D01*
X39778571Y-91976190D01*
X39702380Y-91900000D01*
X39588095Y-91861904D01*
X39511904Y-91861904D01*
X39397619Y-91900000D01*
X39359523Y-91938095D01*
X38788095Y-91861904D02*
X38788095Y-92433333D01*
X38826190Y-92547619D01*
X38902380Y-92623809D01*
X39016666Y-92661904D01*
X39092857Y-92661904D01*
X38026190Y-92661904D02*
X38407142Y-92661904D01*
X38407142Y-91861904D01*
X37302380Y-92585714D02*
X37340476Y-92623809D01*
X37454761Y-92661904D01*
X37530952Y-92661904D01*
X37645238Y-92623809D01*
X37721428Y-92547619D01*
X37759523Y-92471428D01*
X37797619Y-92319047D01*
X37797619Y-92204761D01*
X37759523Y-92052380D01*
X37721428Y-91976190D01*
X37645238Y-91900000D01*
X37530952Y-91861904D01*
X37454761Y-91861904D01*
X37340476Y-91900000D01*
X37302380Y-91938095D01*
X36730952Y-91861904D02*
X36730952Y-92433333D01*
X36769047Y-92547619D01*
X36845238Y-92623809D01*
X36959523Y-92661904D01*
X37035714Y-92661904D01*
X35969047Y-92661904D02*
X36350000Y-92661904D01*
X36350000Y-91861904D01*
X35245238Y-92585714D02*
X35283333Y-92623809D01*
X35397619Y-92661904D01*
X35473809Y-92661904D01*
X35588095Y-92623809D01*
X35664285Y-92547619D01*
X35702380Y-92471428D01*
X35740476Y-92319047D01*
X35740476Y-92204761D01*
X35702380Y-92052380D01*
X35664285Y-91976190D01*
X35588095Y-91900000D01*
X35473809Y-91861904D01*
X35397619Y-91861904D01*
X35283333Y-91900000D01*
X35245238Y-91938095D01*
X34673809Y-91861904D02*
X34673809Y-92433333D01*
X34711904Y-92547619D01*
X34788095Y-92623809D01*
X34902380Y-92661904D01*
X34978571Y-92661904D01*
X33911904Y-92661904D02*
X34292857Y-92661904D01*
X34292857Y-91861904D01*
X33188095Y-92585714D02*
X33226190Y-92623809D01*
X33340476Y-92661904D01*
X33416666Y-92661904D01*
X33530952Y-92623809D01*
X33607142Y-92547619D01*
X33645238Y-92471428D01*
X33683333Y-92319047D01*
X33683333Y-92204761D01*
X33645238Y-92052380D01*
X33607142Y-91976190D01*
X33530952Y-91900000D01*
X33416666Y-91861904D01*
X33340476Y-91861904D01*
X33226190Y-91900000D01*
X33188095Y-91938095D01*
D11*
%TO.C,D2*%
X75258210Y-45722942D02*
X74916190Y-44783250D01*
X73276391Y-46710310D02*
X78350731Y-44863401D01*
X72763361Y-45300771D02*
X73276391Y-46710310D01*
X78350731Y-44863401D02*
X77837701Y-43453862D01*
X74916190Y-44783250D02*
X75932923Y-44945278D01*
X77837701Y-43453862D02*
X72763361Y-45300771D01*
X76197902Y-45380922D02*
X75855882Y-44441230D01*
X75932923Y-44945278D02*
X75258210Y-45722942D01*
%TO.C,D9*%
X115258210Y-50072942D02*
X114916190Y-49133250D01*
X112763361Y-49650771D02*
X113276391Y-51060310D01*
X114916190Y-49133250D02*
X115932923Y-49295278D01*
X113276391Y-51060310D02*
X118350731Y-49213401D01*
X118350731Y-49213401D02*
X117837701Y-47803862D01*
X116197902Y-49730922D02*
X115855882Y-48791230D01*
X115932923Y-49295278D02*
X115258210Y-50072942D01*
X117837701Y-47803862D02*
X112763361Y-49650771D01*
%TO.C,D10*%
X139330655Y-53946776D02*
X134256315Y-55793685D01*
X139843685Y-55356315D02*
X139330655Y-53946776D01*
X136409144Y-55276164D02*
X137425877Y-55438192D01*
X137690856Y-55873836D02*
X137348836Y-54934144D01*
X137425877Y-55438192D02*
X136751164Y-56215856D01*
X136751164Y-56215856D02*
X136409144Y-55276164D01*
X134769345Y-57203224D02*
X139843685Y-55356315D01*
X134256315Y-55793685D02*
X134769345Y-57203224D01*
%TO.C,D8*%
X94281315Y-51443685D02*
X94794345Y-52853224D01*
X99355655Y-49596776D02*
X94281315Y-51443685D01*
X96434144Y-50926164D02*
X97450877Y-51088192D01*
X94794345Y-52853224D02*
X99868685Y-51006315D01*
X96776164Y-51865856D02*
X96434144Y-50926164D01*
X99868685Y-51006315D02*
X99355655Y-49596776D01*
X97715856Y-51523836D02*
X97373836Y-50584144D01*
X97450877Y-51088192D02*
X96776164Y-51865856D01*
%TO.C,D13*%
X106068685Y-66981315D02*
X105555655Y-65571776D01*
X103650877Y-67063192D02*
X102976164Y-67840856D01*
X105555655Y-65571776D02*
X100481315Y-67418685D01*
X102976164Y-67840856D02*
X102634144Y-66901164D01*
X103915856Y-67498836D02*
X103573836Y-66559144D01*
X100994345Y-68828224D02*
X106068685Y-66981315D01*
X100481315Y-67418685D02*
X100994345Y-68828224D01*
X102634144Y-66901164D02*
X103650877Y-67063192D01*
%TO.C,D6*%
X64826164Y-68290856D02*
X64484144Y-67351164D01*
X65500877Y-67513192D02*
X64826164Y-68290856D01*
X62844345Y-69278224D02*
X67918685Y-67431315D01*
X67918685Y-67431315D02*
X67405655Y-66021776D01*
X65765856Y-67948836D02*
X65423836Y-67009144D01*
X64484144Y-67351164D02*
X65500877Y-67513192D01*
X67405655Y-66021776D02*
X62331315Y-67868685D01*
X62331315Y-67868685D02*
X62844345Y-69278224D01*
%TO.C,D3*%
X93205655Y-33621776D02*
X88131315Y-35468685D01*
X91300877Y-35113192D02*
X90626164Y-35890856D01*
X88644345Y-36878224D02*
X93718685Y-35031315D01*
X90284144Y-34951164D02*
X91300877Y-35113192D01*
X90626164Y-35890856D02*
X90284144Y-34951164D01*
X88131315Y-35468685D02*
X88644345Y-36878224D01*
X91565856Y-35548836D02*
X91223836Y-34609144D01*
X93718685Y-35031315D02*
X93205655Y-33621776D01*
%TO.C,D15*%
X140994345Y-73178224D02*
X146068685Y-71331315D01*
X142976164Y-72190856D02*
X142634144Y-71251164D01*
X143650877Y-71413192D02*
X142976164Y-72190856D01*
X146068685Y-71331315D02*
X145555655Y-69921776D01*
X140481315Y-71768685D02*
X140994345Y-73178224D01*
X142634144Y-71251164D02*
X143650877Y-71413192D01*
X143915856Y-71848836D02*
X143573836Y-70909144D01*
X145555655Y-69921776D02*
X140481315Y-71768685D01*
%TO.C,D11*%
X71650877Y-83488192D02*
X70976164Y-84265856D01*
X74068685Y-83406315D02*
X73555655Y-81996776D01*
X73555655Y-81996776D02*
X68481315Y-83843685D01*
X71915856Y-83923836D02*
X71573836Y-82984144D01*
X70976164Y-84265856D02*
X70634144Y-83326164D01*
X68481315Y-83843685D02*
X68994345Y-85253224D01*
X68994345Y-85253224D02*
X74068685Y-83406315D01*
X70634144Y-83326164D02*
X71650877Y-83488192D01*
%TO.C,D4*%
X106581315Y-33668685D02*
X107094345Y-35078224D01*
X111655655Y-31821776D02*
X106581315Y-33668685D01*
X112168685Y-33231315D02*
X111655655Y-31821776D01*
X109076164Y-34090856D02*
X108734144Y-33151164D01*
X108734144Y-33151164D02*
X109750877Y-33313192D01*
X109750877Y-33313192D02*
X109076164Y-34090856D01*
X110015856Y-33748836D02*
X109673836Y-32809144D01*
X107094345Y-35078224D02*
X112168685Y-33231315D01*
%TO.C,D1*%
X56669345Y-53303224D02*
X61743685Y-51456315D01*
X58651164Y-52315856D02*
X58309144Y-51376164D01*
X61230655Y-50046776D02*
X56156315Y-51893685D01*
X56156315Y-51893685D02*
X56669345Y-53303224D01*
X61743685Y-51456315D02*
X61230655Y-50046776D01*
X59590856Y-51973836D02*
X59248836Y-51034144D01*
X59325877Y-51538192D02*
X58651164Y-52315856D01*
X58309144Y-51376164D02*
X59325877Y-51538192D01*
%TO.C,D7*%
X84518685Y-60831315D02*
X84005655Y-59421776D01*
X81084144Y-60751164D02*
X82100877Y-60913192D01*
X78931315Y-61268685D02*
X79444345Y-62678224D01*
X81426164Y-61690856D02*
X81084144Y-60751164D01*
X84005655Y-59421776D02*
X78931315Y-61268685D01*
X82100877Y-60913192D02*
X81426164Y-61690856D01*
X79444345Y-62678224D02*
X84518685Y-60831315D01*
X82365856Y-61348836D02*
X82023836Y-60409144D01*
%TO.C,D14*%
X121426164Y-66015856D02*
X121084144Y-65076164D01*
X124518685Y-65156315D02*
X124005655Y-63746776D01*
X118931315Y-65593685D02*
X119444345Y-67003224D01*
X124005655Y-63746776D02*
X118931315Y-65593685D01*
X121084144Y-65076164D02*
X122100877Y-65238192D01*
X122100877Y-65238192D02*
X121426164Y-66015856D01*
X119444345Y-67003224D02*
X124518685Y-65156315D01*
X122365856Y-65673836D02*
X122023836Y-64734144D01*
%TO.C,D17*%
X71669382Y-102110113D02*
X72693202Y-102218708D01*
X75103411Y-102010405D02*
X74517315Y-100629647D01*
X72060113Y-103030618D02*
X71669382Y-102110113D01*
X70132685Y-104120353D02*
X75103411Y-102010405D01*
X69546589Y-102739595D02*
X70132685Y-104120353D01*
X72693202Y-102218708D02*
X72060113Y-103030618D01*
X72980618Y-102639887D02*
X72589887Y-101719382D01*
X74517315Y-100629647D02*
X69546589Y-102739595D01*
%TO.C,D16*%
X58028858Y-115060482D02*
X54210482Y-118878858D01*
X59089518Y-116121142D02*
X58028858Y-115060482D01*
X57357107Y-117500000D02*
X56650000Y-116792893D01*
X56650000Y-118207107D02*
X55942893Y-117500000D01*
X55942893Y-117500000D02*
X56932843Y-117217157D01*
X56932843Y-117217157D02*
X56650000Y-118207107D01*
X54210482Y-118878858D02*
X55271142Y-119939518D01*
X55271142Y-119939518D02*
X59089518Y-116121142D01*
%TO.C,D12*%
X85619345Y-78628224D02*
X90693685Y-76781315D01*
X87259144Y-76701164D02*
X88275877Y-76863192D01*
X88275877Y-76863192D02*
X87601164Y-77640856D01*
X90693685Y-76781315D02*
X90180655Y-75371776D01*
X90180655Y-75371776D02*
X85106315Y-77218685D01*
X88540856Y-77298836D02*
X88198836Y-76359144D01*
X87601164Y-77640856D02*
X87259144Y-76701164D01*
X85106315Y-77218685D02*
X85619345Y-78628224D01*
%TO.C,D5*%
X123531315Y-27843685D02*
X124044345Y-29253224D01*
X126026164Y-28265856D02*
X125684144Y-27326164D01*
X128605655Y-25996776D02*
X123531315Y-27843685D01*
X126700877Y-27488192D02*
X126026164Y-28265856D01*
X124044345Y-29253224D02*
X129118685Y-27406315D01*
X129118685Y-27406315D02*
X128605655Y-25996776D01*
X126965856Y-27923836D02*
X126623836Y-26984144D01*
X125684144Y-27326164D02*
X126700877Y-27488192D01*
%TD*%
D12*
X97564597Y-48914597D03*
X82825000Y-59975000D03*
X66264596Y-65414596D03*
X116075000Y-47075000D03*
X139100000Y-52150000D03*
X88000000Y-74575000D03*
X123000000Y-62250000D03*
X143325000Y-69025000D03*
X103775000Y-64575000D03*
X73325000Y-80650000D03*
X74225000Y-99075000D03*
X57800000Y-113825000D03*
X97125000Y-46100000D03*
X116175000Y-44775000D03*
X133550000Y-41050000D03*
X81975000Y-56200000D03*
X105683534Y-39363704D03*
X116020152Y-35601482D03*
X110851843Y-37482593D03*
X112869762Y-43026779D03*
X107453056Y-42763526D03*
X144725000Y-75600000D03*
X139556691Y-77481111D03*
X149893309Y-73718889D03*
X146742919Y-81144186D03*
X141326213Y-80880933D03*
X60625000Y-95625000D03*
X54656519Y-99282490D03*
D13*
X64535960Y-95691299D03*
X55094025Y-96551448D03*
X57651945Y-94983953D03*
X61062506Y-92893958D03*
D12*
X92400000Y-39300000D03*
X87231691Y-41181111D03*
X97568309Y-37418889D03*
X94417919Y-44844186D03*
X89001213Y-44580933D03*
X63567374Y-116664200D03*
X55789200Y-124442374D03*
X59678287Y-120553287D03*
X63850217Y-124725217D03*
X58829759Y-126775827D03*
X93383534Y-57163704D03*
X98551843Y-55282593D03*
X103720152Y-53401482D03*
X100569762Y-60826779D03*
X95153056Y-60563526D03*
X143695152Y-57751482D03*
X138526843Y-59632593D03*
X133358534Y-61513704D03*
X140544762Y-65176779D03*
X135128056Y-64913526D03*
X132945152Y-29801482D03*
X127776843Y-31682593D03*
X122608534Y-33563704D03*
X129794762Y-37226779D03*
X124378056Y-36963526D03*
X117025000Y-53475000D03*
X122193309Y-51593889D03*
X111856691Y-55356111D03*
X119042919Y-59019186D03*
X113626213Y-58755933D03*
X78008534Y-66988704D03*
X88345152Y-63226482D03*
X83176843Y-65107593D03*
X85194762Y-70651779D03*
X79778056Y-70388526D03*
X89351843Y-81057593D03*
X94520152Y-79176482D03*
X84183534Y-82938704D03*
X91369762Y-86601779D03*
X85953056Y-86338526D03*
X104726843Y-71257593D03*
X99558534Y-73138704D03*
X109895152Y-69376482D03*
X106744762Y-76801779D03*
X101328056Y-76538526D03*
X44524000Y-68190000D03*
X44524000Y-70730000D03*
X44524000Y-73270000D03*
X44524000Y-75810000D03*
X44524000Y-78350000D03*
X44524000Y-80890000D03*
X44524000Y-83430000D03*
X44524000Y-85970000D03*
X44524000Y-88510000D03*
X41984000Y-88720000D03*
X39444000Y-88720000D03*
X36904000Y-88720000D03*
X34364000Y-88720000D03*
X31824000Y-88720000D03*
X29284000Y-88510000D03*
X29284000Y-85970000D03*
X29284000Y-83430000D03*
X29284000Y-80890000D03*
X29284000Y-78350000D03*
X29284000Y-75810000D03*
X29284000Y-73270000D03*
X29284000Y-70730000D03*
X29284000Y-68190000D03*
X68937223Y-108499021D03*
X74000000Y-106350000D03*
X79062777Y-104200979D03*
X76305314Y-111780979D03*
X70882254Y-111801574D03*
X77025000Y-49125000D03*
X71856691Y-51006111D03*
X82193309Y-47243889D03*
X79042919Y-54669186D03*
X73626213Y-54405933D03*
X65593309Y-53843889D03*
X55256691Y-57606111D03*
X60425000Y-55725000D03*
X62442919Y-61269186D03*
X57026213Y-61005933D03*
X128345152Y-67551482D03*
X123176843Y-69432593D03*
X118008534Y-71313704D03*
X125194762Y-74976779D03*
X119778056Y-74713526D03*
X61408534Y-73588704D03*
X66576843Y-71707593D03*
X71745152Y-69826482D03*
X68594762Y-77251779D03*
X63178056Y-76988526D03*
X67558534Y-89563704D03*
X77895152Y-85801482D03*
X72726843Y-87682593D03*
X74744762Y-93226779D03*
X69328056Y-92963526D03*
M02*
