%TF.GenerationSoftware,KiCad,Pcbnew,(6.0.11)*%
%TF.CreationDate,2024-04-13T23:14:31+09:00*%
%TF.ProjectId,haqua34_right,68617175-6133-4345-9f72-696768742e6b,rev?*%
%TF.SameCoordinates,Original*%
%TF.FileFunction,Legend,Top*%
%TF.FilePolarity,Positive*%
%FSLAX46Y46*%
G04 Gerber Fmt 4.6, Leading zero omitted, Abs format (unit mm)*
G04 Created by KiCad (PCBNEW (6.0.11)) date 2024-04-13 23:14:31*
%MOMM*%
%LPD*%
G01*
G04 APERTURE LIST*
G04 Aperture macros list*
%AMHorizOval*
0 Thick line with rounded ends*
0 $1 width*
0 $2 $3 position (X,Y) of the first rounded end (center of the circle)*
0 $4 $5 position (X,Y) of the second rounded end (center of the circle)*
0 Add line between two ends*
20,1,$1,$2,$3,$4,$5,0*
0 Add two circle primitives to create the rounded ends*
1,1,$1,$2,$3*
1,1,$1,$4,$5*%
G04 Aperture macros list end*
%ADD10C,0.200000*%
%ADD11C,0.150000*%
%ADD12C,0.350000*%
%ADD13HorizOval,1.000000X0.213160X0.130625X-0.213160X-0.130625X0*%
G04 APERTURE END LIST*
D10*
X31758333Y-92522380D02*
X31758333Y-91522380D01*
X32186904Y-92522380D02*
X32186904Y-91998571D01*
X32139285Y-91903333D01*
X32044047Y-91855714D01*
X31901190Y-91855714D01*
X31805952Y-91903333D01*
X31758333Y-91950952D01*
X33091666Y-92522380D02*
X33091666Y-91998571D01*
X33044047Y-91903333D01*
X32948809Y-91855714D01*
X32758333Y-91855714D01*
X32663095Y-91903333D01*
X33091666Y-92474761D02*
X32996428Y-92522380D01*
X32758333Y-92522380D01*
X32663095Y-92474761D01*
X32615476Y-92379523D01*
X32615476Y-92284285D01*
X32663095Y-92189047D01*
X32758333Y-92141428D01*
X32996428Y-92141428D01*
X33091666Y-92093809D01*
X33996428Y-91855714D02*
X33996428Y-92855714D01*
X33996428Y-92474761D02*
X33901190Y-92522380D01*
X33710714Y-92522380D01*
X33615476Y-92474761D01*
X33567857Y-92427142D01*
X33520238Y-92331904D01*
X33520238Y-92046190D01*
X33567857Y-91950952D01*
X33615476Y-91903333D01*
X33710714Y-91855714D01*
X33901190Y-91855714D01*
X33996428Y-91903333D01*
X34901190Y-91855714D02*
X34901190Y-92522380D01*
X34472619Y-91855714D02*
X34472619Y-92379523D01*
X34520238Y-92474761D01*
X34615476Y-92522380D01*
X34758333Y-92522380D01*
X34853571Y-92474761D01*
X34901190Y-92427142D01*
X35805952Y-92522380D02*
X35805952Y-91998571D01*
X35758333Y-91903333D01*
X35663095Y-91855714D01*
X35472619Y-91855714D01*
X35377380Y-91903333D01*
X35805952Y-92474761D02*
X35710714Y-92522380D01*
X35472619Y-92522380D01*
X35377380Y-92474761D01*
X35329761Y-92379523D01*
X35329761Y-92284285D01*
X35377380Y-92189047D01*
X35472619Y-92141428D01*
X35710714Y-92141428D01*
X35805952Y-92093809D01*
X36186904Y-91522380D02*
X36805952Y-91522380D01*
X36472619Y-91903333D01*
X36615476Y-91903333D01*
X36710714Y-91950952D01*
X36758333Y-91998571D01*
X36805952Y-92093809D01*
X36805952Y-92331904D01*
X36758333Y-92427142D01*
X36710714Y-92474761D01*
X36615476Y-92522380D01*
X36329761Y-92522380D01*
X36234523Y-92474761D01*
X36186904Y-92427142D01*
X37663095Y-91855714D02*
X37663095Y-92522380D01*
X37425000Y-91474761D02*
X37186904Y-92189047D01*
X37805952Y-92189047D01*
X38948809Y-92522380D02*
X38948809Y-91855714D01*
X38948809Y-92046190D02*
X38996428Y-91950952D01*
X39044047Y-91903333D01*
X39139285Y-91855714D01*
X39234523Y-91855714D01*
X39948809Y-92474761D02*
X39853571Y-92522380D01*
X39663095Y-92522380D01*
X39567857Y-92474761D01*
X39520238Y-92379523D01*
X39520238Y-91998571D01*
X39567857Y-91903333D01*
X39663095Y-91855714D01*
X39853571Y-91855714D01*
X39948809Y-91903333D01*
X39996428Y-91998571D01*
X39996428Y-92093809D01*
X39520238Y-92189047D01*
X40329761Y-91855714D02*
X40567857Y-92522380D01*
X40805952Y-91855714D01*
X41377380Y-91522380D02*
X41472619Y-91522380D01*
X41567857Y-91570000D01*
X41615476Y-91617619D01*
X41663095Y-91712857D01*
X41710714Y-91903333D01*
X41710714Y-92141428D01*
X41663095Y-92331904D01*
X41615476Y-92427142D01*
X41567857Y-92474761D01*
X41472619Y-92522380D01*
X41377380Y-92522380D01*
X41282142Y-92474761D01*
X41234523Y-92427142D01*
X41186904Y-92331904D01*
X41139285Y-92141428D01*
X41139285Y-91903333D01*
X41186904Y-91712857D01*
X41234523Y-91617619D01*
X41282142Y-91570000D01*
X41377380Y-91522380D01*
X42139285Y-92427142D02*
X42186904Y-92474761D01*
X42139285Y-92522380D01*
X42091666Y-92474761D01*
X42139285Y-92427142D01*
X42139285Y-92522380D01*
X43139285Y-92522380D02*
X42567857Y-92522380D01*
X42853571Y-92522380D02*
X42853571Y-91522380D01*
X42758333Y-91665238D01*
X42663095Y-91760476D01*
X42567857Y-91808095D01*
X28996428Y-94132380D02*
X28996428Y-93132380D01*
X28996428Y-94084761D02*
X28901190Y-94132380D01*
X28710714Y-94132380D01*
X28615476Y-94084761D01*
X28567857Y-94037142D01*
X28520238Y-93941904D01*
X28520238Y-93656190D01*
X28567857Y-93560952D01*
X28615476Y-93513333D01*
X28710714Y-93465714D01*
X28901190Y-93465714D01*
X28996428Y-93513333D01*
X29853571Y-94084761D02*
X29758333Y-94132380D01*
X29567857Y-94132380D01*
X29472619Y-94084761D01*
X29425000Y-93989523D01*
X29425000Y-93608571D01*
X29472619Y-93513333D01*
X29567857Y-93465714D01*
X29758333Y-93465714D01*
X29853571Y-93513333D01*
X29901190Y-93608571D01*
X29901190Y-93703809D01*
X29425000Y-93799047D01*
X30282142Y-94084761D02*
X30377380Y-94132380D01*
X30567857Y-94132380D01*
X30663095Y-94084761D01*
X30710714Y-93989523D01*
X30710714Y-93941904D01*
X30663095Y-93846666D01*
X30567857Y-93799047D01*
X30424999Y-93799047D01*
X30329761Y-93751428D01*
X30282142Y-93656190D01*
X30282142Y-93608571D01*
X30329761Y-93513333D01*
X30424999Y-93465714D01*
X30567857Y-93465714D01*
X30663095Y-93513333D01*
X31139285Y-94132380D02*
X31139285Y-93465714D01*
X31139285Y-93132380D02*
X31091666Y-93180000D01*
X31139285Y-93227619D01*
X31186904Y-93180000D01*
X31139285Y-93132380D01*
X31139285Y-93227619D01*
X32044047Y-93465714D02*
X32044047Y-94275238D01*
X31996428Y-94370476D01*
X31948809Y-94418095D01*
X31853571Y-94465714D01*
X31710714Y-94465714D01*
X31615476Y-94418095D01*
X32044047Y-94084761D02*
X31948809Y-94132380D01*
X31758333Y-94132380D01*
X31663095Y-94084761D01*
X31615476Y-94037142D01*
X31567857Y-93941904D01*
X31567857Y-93656190D01*
X31615476Y-93560952D01*
X31663095Y-93513333D01*
X31758333Y-93465714D01*
X31948809Y-93465714D01*
X32044047Y-93513333D01*
X32520238Y-93465714D02*
X32520238Y-94132380D01*
X32520238Y-93560952D02*
X32567857Y-93513333D01*
X32663095Y-93465714D01*
X32805952Y-93465714D01*
X32901190Y-93513333D01*
X32948809Y-93608571D01*
X32948809Y-94132380D01*
X33805952Y-94084761D02*
X33710714Y-94132380D01*
X33520238Y-94132380D01*
X33425000Y-94084761D01*
X33377380Y-93989523D01*
X33377380Y-93608571D01*
X33425000Y-93513333D01*
X33520238Y-93465714D01*
X33710714Y-93465714D01*
X33805952Y-93513333D01*
X33853571Y-93608571D01*
X33853571Y-93703809D01*
X33377380Y-93799047D01*
X34710714Y-94132380D02*
X34710714Y-93132380D01*
X34710714Y-94084761D02*
X34615476Y-94132380D01*
X34425000Y-94132380D01*
X34329761Y-94084761D01*
X34282142Y-94037142D01*
X34234523Y-93941904D01*
X34234523Y-93656190D01*
X34282142Y-93560952D01*
X34329761Y-93513333D01*
X34425000Y-93465714D01*
X34615476Y-93465714D01*
X34710714Y-93513333D01*
X35948809Y-94132380D02*
X35948809Y-93132380D01*
X35948809Y-93513333D02*
X36044047Y-93465714D01*
X36234523Y-93465714D01*
X36329761Y-93513333D01*
X36377380Y-93560952D01*
X36425000Y-93656190D01*
X36425000Y-93941904D01*
X36377380Y-94037142D01*
X36329761Y-94084761D01*
X36234523Y-94132380D01*
X36044047Y-94132380D01*
X35948809Y-94084761D01*
X36758333Y-93465714D02*
X36996428Y-94132380D01*
X37234523Y-93465714D02*
X36996428Y-94132380D01*
X36901190Y-94370476D01*
X36853571Y-94418095D01*
X36758333Y-94465714D01*
X38234523Y-93465714D02*
X38615476Y-93465714D01*
X38377380Y-93132380D02*
X38377380Y-93989523D01*
X38425000Y-94084761D01*
X38520238Y-94132380D01*
X38615476Y-94132380D01*
X39377380Y-94132380D02*
X39377380Y-93608571D01*
X39329761Y-93513333D01*
X39234523Y-93465714D01*
X39044047Y-93465714D01*
X38948809Y-93513333D01*
X39377380Y-94084761D02*
X39282142Y-94132380D01*
X39044047Y-94132380D01*
X38948809Y-94084761D01*
X38901190Y-93989523D01*
X38901190Y-93894285D01*
X38948809Y-93799047D01*
X39044047Y-93751428D01*
X39282142Y-93751428D01*
X39377380Y-93703809D01*
X39853571Y-94132380D02*
X39853571Y-93465714D01*
X39853571Y-93560952D02*
X39901190Y-93513333D01*
X39996428Y-93465714D01*
X40139285Y-93465714D01*
X40234523Y-93513333D01*
X40282142Y-93608571D01*
X40282142Y-94132380D01*
X40282142Y-93608571D02*
X40329761Y-93513333D01*
X40425000Y-93465714D01*
X40567857Y-93465714D01*
X40663095Y-93513333D01*
X40710714Y-93608571D01*
X40710714Y-94132380D01*
X41615476Y-94132380D02*
X41615476Y-93608571D01*
X41567857Y-93513333D01*
X41472619Y-93465714D01*
X41282142Y-93465714D01*
X41186904Y-93513333D01*
X41615476Y-94084761D02*
X41520238Y-94132380D01*
X41282142Y-94132380D01*
X41186904Y-94084761D01*
X41139285Y-93989523D01*
X41139285Y-93894285D01*
X41186904Y-93799047D01*
X41282142Y-93751428D01*
X41520238Y-93751428D01*
X41615476Y-93703809D01*
X42520238Y-93465714D02*
X42520238Y-94275238D01*
X42472619Y-94370476D01*
X42425000Y-94418095D01*
X42329761Y-94465714D01*
X42186904Y-94465714D01*
X42091666Y-94418095D01*
X42520238Y-94084761D02*
X42425000Y-94132380D01*
X42234523Y-94132380D01*
X42139285Y-94084761D01*
X42091666Y-94037142D01*
X42044047Y-93941904D01*
X42044047Y-93656190D01*
X42091666Y-93560952D01*
X42139285Y-93513333D01*
X42234523Y-93465714D01*
X42425000Y-93465714D01*
X42520238Y-93513333D01*
X43139285Y-94132380D02*
X43044047Y-94084761D01*
X42996428Y-94037142D01*
X42948809Y-93941904D01*
X42948809Y-93656190D01*
X42996428Y-93560952D01*
X43044047Y-93513333D01*
X43139285Y-93465714D01*
X43282142Y-93465714D01*
X43377380Y-93513333D01*
X43425000Y-93560952D01*
X43472619Y-93656190D01*
X43472619Y-93941904D01*
X43425000Y-94037142D01*
X43377380Y-94084761D01*
X43282142Y-94132380D01*
X43139285Y-94132380D01*
X43805952Y-93132380D02*
X44425000Y-93132380D01*
X44091666Y-93513333D01*
X44234523Y-93513333D01*
X44329761Y-93560952D01*
X44377380Y-93608571D01*
X44425000Y-93703809D01*
X44425000Y-93941904D01*
X44377380Y-94037142D01*
X44329761Y-94084761D01*
X44234523Y-94132380D01*
X43948809Y-94132380D01*
X43853571Y-94084761D01*
X43805952Y-94037142D01*
X44805952Y-93227619D02*
X44853571Y-93180000D01*
X44948809Y-93132380D01*
X45186904Y-93132380D01*
X45282142Y-93180000D01*
X45329761Y-93227619D01*
X45377380Y-93322857D01*
X45377380Y-93418095D01*
X45329761Y-93560952D01*
X44758333Y-94132380D01*
X45377380Y-94132380D01*
X46234523Y-93465714D02*
X46234523Y-94132380D01*
X45996428Y-93084761D02*
X45758333Y-93799047D01*
X46377380Y-93799047D01*
D11*
%TO.C,RZ1*%
X32523047Y-78052380D02*
X32189714Y-77576190D01*
X31951619Y-78052380D02*
X31951619Y-77052380D01*
X32332571Y-77052380D01*
X32427809Y-77100000D01*
X32475428Y-77147619D01*
X32523047Y-77242857D01*
X32523047Y-77385714D01*
X32475428Y-77480952D01*
X32427809Y-77528571D01*
X32332571Y-77576190D01*
X31951619Y-77576190D01*
X32951619Y-78052380D02*
X32951619Y-77052380D01*
X33332571Y-77052380D01*
X33427809Y-77100000D01*
X33475428Y-77147619D01*
X33523047Y-77242857D01*
X33523047Y-77385714D01*
X33475428Y-77480952D01*
X33427809Y-77528571D01*
X33332571Y-77576190D01*
X32951619Y-77576190D01*
X33904000Y-77147619D02*
X33951619Y-77100000D01*
X34046857Y-77052380D01*
X34284952Y-77052380D01*
X34380190Y-77100000D01*
X34427809Y-77147619D01*
X34475428Y-77242857D01*
X34475428Y-77338095D01*
X34427809Y-77480952D01*
X33856380Y-78052380D01*
X34475428Y-78052380D01*
X35094476Y-77052380D02*
X35189714Y-77052380D01*
X35284952Y-77100000D01*
X35332571Y-77147619D01*
X35380190Y-77242857D01*
X35427809Y-77433333D01*
X35427809Y-77671428D01*
X35380190Y-77861904D01*
X35332571Y-77957142D01*
X35284952Y-78004761D01*
X35189714Y-78052380D01*
X35094476Y-78052380D01*
X34999238Y-78004761D01*
X34951619Y-77957142D01*
X34904000Y-77861904D01*
X34856380Y-77671428D01*
X34856380Y-77433333D01*
X34904000Y-77242857D01*
X34951619Y-77147619D01*
X34999238Y-77100000D01*
X35094476Y-77052380D01*
X36284952Y-77385714D02*
X36284952Y-78052380D01*
X36046857Y-77004761D02*
X35808761Y-77719047D01*
X36427809Y-77719047D01*
X36999238Y-77052380D02*
X37094476Y-77052380D01*
X37189714Y-77100000D01*
X37237333Y-77147619D01*
X37284952Y-77242857D01*
X37332571Y-77433333D01*
X37332571Y-77671428D01*
X37284952Y-77861904D01*
X37237333Y-77957142D01*
X37189714Y-78004761D01*
X37094476Y-78052380D01*
X36999238Y-78052380D01*
X36904000Y-78004761D01*
X36856380Y-77957142D01*
X36808761Y-77861904D01*
X36761142Y-77671428D01*
X36761142Y-77433333D01*
X36808761Y-77242857D01*
X36856380Y-77147619D01*
X36904000Y-77100000D01*
X36999238Y-77052380D01*
X37761142Y-77671428D02*
X38523047Y-77671428D01*
X38904000Y-77052380D02*
X39570666Y-77052380D01*
X38904000Y-78052380D01*
X39570666Y-78052380D01*
X40332571Y-78004761D02*
X40237333Y-78052380D01*
X40046857Y-78052380D01*
X39951619Y-78004761D01*
X39904000Y-77909523D01*
X39904000Y-77528571D01*
X39951619Y-77433333D01*
X40046857Y-77385714D01*
X40237333Y-77385714D01*
X40332571Y-77433333D01*
X40380190Y-77528571D01*
X40380190Y-77623809D01*
X39904000Y-77719047D01*
X40808761Y-78052380D02*
X40808761Y-77385714D01*
X40808761Y-77576190D02*
X40856380Y-77480952D01*
X40904000Y-77433333D01*
X40999238Y-77385714D01*
X41094476Y-77385714D01*
X41570666Y-78052380D02*
X41475428Y-78004761D01*
X41427809Y-77957142D01*
X41380190Y-77861904D01*
X41380190Y-77576190D01*
X41427809Y-77480952D01*
X41475428Y-77433333D01*
X41570666Y-77385714D01*
X41713523Y-77385714D01*
X41808761Y-77433333D01*
X41856380Y-77480952D01*
X41904000Y-77576190D01*
X41904000Y-77861904D01*
X41856380Y-77957142D01*
X41808761Y-78004761D01*
X41713523Y-78052380D01*
X41570666Y-78052380D01*
X25791523Y-67642380D02*
X25315333Y-67642380D01*
X25267714Y-68118571D01*
X25315333Y-68070952D01*
X25410571Y-68023333D01*
X25648666Y-68023333D01*
X25743904Y-68070952D01*
X25791523Y-68118571D01*
X25839142Y-68213809D01*
X25839142Y-68451904D01*
X25791523Y-68547142D01*
X25743904Y-68594761D01*
X25648666Y-68642380D01*
X25410571Y-68642380D01*
X25315333Y-68594761D01*
X25267714Y-68547142D01*
X26124857Y-67642380D02*
X26458190Y-68642380D01*
X26791523Y-67642380D01*
%TD*%
D12*
X97564597Y-48914597D03*
X82825000Y-59975000D03*
X66264596Y-65414596D03*
X116075000Y-47075000D03*
X139100000Y-52150000D03*
X88000000Y-74575000D03*
X123000000Y-62250000D03*
X143325000Y-69025000D03*
X103775000Y-64575000D03*
X73325000Y-80650000D03*
X74225000Y-99075000D03*
X57800000Y-113825000D03*
X97125000Y-46100000D03*
X116175000Y-44775000D03*
X133550000Y-41050000D03*
X81975000Y-56200000D03*
X105683534Y-39363704D03*
X116020152Y-35601482D03*
X110851843Y-37482593D03*
X112869762Y-43026779D03*
X107453056Y-42763526D03*
X144725000Y-75600000D03*
X139556691Y-77481111D03*
X149893309Y-73718889D03*
X146742919Y-81144186D03*
X141326213Y-80880933D03*
X60625000Y-95625000D03*
X54656519Y-99282490D03*
D13*
X64535960Y-95691299D03*
X55094025Y-96551448D03*
X57651945Y-94983953D03*
X61062506Y-92893958D03*
D12*
X92400000Y-39300000D03*
X87231691Y-41181111D03*
X97568309Y-37418889D03*
X94417919Y-44844186D03*
X89001213Y-44580933D03*
X63567374Y-116664200D03*
X55789200Y-124442374D03*
X59678287Y-120553287D03*
X63850217Y-124725217D03*
X58829759Y-126775827D03*
X93383534Y-57163704D03*
X98551843Y-55282593D03*
X103720152Y-53401482D03*
X100569762Y-60826779D03*
X95153056Y-60563526D03*
X143695152Y-57751482D03*
X138526843Y-59632593D03*
X133358534Y-61513704D03*
X140544762Y-65176779D03*
X135128056Y-64913526D03*
X132945152Y-29801482D03*
X127776843Y-31682593D03*
X122608534Y-33563704D03*
X129794762Y-37226779D03*
X124378056Y-36963526D03*
X117025000Y-53475000D03*
X122193309Y-51593889D03*
X111856691Y-55356111D03*
X119042919Y-59019186D03*
X113626213Y-58755933D03*
X78008534Y-66988704D03*
X88345152Y-63226482D03*
X83176843Y-65107593D03*
X85194762Y-70651779D03*
X79778056Y-70388526D03*
X89351843Y-81057593D03*
X94520152Y-79176482D03*
X84183534Y-82938704D03*
X91369762Y-86601779D03*
X85953056Y-86338526D03*
X104726843Y-71257593D03*
X99558534Y-73138704D03*
X109895152Y-69376482D03*
X106744762Y-76801779D03*
X101328056Y-76538526D03*
X44524000Y-68190000D03*
X44524000Y-70730000D03*
X44524000Y-73270000D03*
X44524000Y-75810000D03*
X44524000Y-78350000D03*
X44524000Y-80890000D03*
X44524000Y-83430000D03*
X44524000Y-85970000D03*
X44524000Y-88510000D03*
X41984000Y-88720000D03*
X39444000Y-88720000D03*
X36904000Y-88720000D03*
X34364000Y-88720000D03*
X31824000Y-88720000D03*
X29284000Y-88510000D03*
X29284000Y-85970000D03*
X29284000Y-83430000D03*
X29284000Y-80890000D03*
X29284000Y-78350000D03*
X29284000Y-75810000D03*
X29284000Y-73270000D03*
X29284000Y-70730000D03*
X29284000Y-68190000D03*
X68937223Y-108499021D03*
X74000000Y-106350000D03*
X79062777Y-104200979D03*
X76305314Y-111780979D03*
X70882254Y-111801574D03*
X77025000Y-49125000D03*
X71856691Y-51006111D03*
X82193309Y-47243889D03*
X79042919Y-54669186D03*
X73626213Y-54405933D03*
X65593309Y-53843889D03*
X55256691Y-57606111D03*
X60425000Y-55725000D03*
X62442919Y-61269186D03*
X57026213Y-61005933D03*
X128345152Y-67551482D03*
X123176843Y-69432593D03*
X118008534Y-71313704D03*
X125194762Y-74976779D03*
X119778056Y-74713526D03*
X61408534Y-73588704D03*
X66576843Y-71707593D03*
X71745152Y-69826482D03*
X68594762Y-77251779D03*
X63178056Y-76988526D03*
X67558534Y-89563704D03*
X77895152Y-85801482D03*
X72726843Y-87682593D03*
X74744762Y-93226779D03*
X69328056Y-92963526D03*
M02*
