M48
; DRILL file {KiCad (6.0.11)} date Sat Apr 13 23:14:31 2024
; FORMAT={-:-/ absolute / metric / decimal}
; #@! TF.CreationDate,2024-04-13T23:14:31+09:00
; #@! TF.GenerationSoftware,Kicad,Pcbnew,(6.0.11)
; #@! TF.FileFunction,Plated,1,2,PTH
FMAT,2
METRIC
; #@! TA.AperFunction,Plated,PTH,ViaDrill
T1C0.400
; #@! TA.AperFunction,Plated,PTH,ComponentDrill
T2C0.800
; #@! TA.AperFunction,Plated,PTH,ComponentDrill
T3C1.000
; #@! TA.AperFunction,Plated,PTH,ComponentDrill
T4C1.200
%
G90
G05
T1
X57.8Y-113.825
X66.265Y-65.415
X73.325Y-80.65
X74.225Y-99.075
X81.975Y-56.2
X82.825Y-59.975
X88.0Y-74.575
X97.125Y-46.1
X97.565Y-48.915
X103.775Y-64.575
X116.075Y-47.075
X116.175Y-44.775
X123.0Y-62.25
X133.55Y-41.05
X139.1Y-52.15
X143.325Y-69.025
T2
X29.284Y-68.19
X29.284Y-70.73
X29.284Y-73.27
X29.284Y-75.81
X29.284Y-78.35
X29.284Y-80.89
X29.284Y-83.43
X29.284Y-85.97
X29.284Y-88.51
X31.824Y-88.72
X34.364Y-88.72
X36.904Y-88.72
X39.444Y-88.72
X41.984Y-88.72
X44.524Y-68.19
X44.524Y-70.73
X44.524Y-73.27
X44.524Y-75.81
X44.524Y-78.35
X44.524Y-80.89
X44.524Y-83.43
X44.524Y-85.97
X44.524Y-88.51
T4
X57.026Y-61.006
X58.83Y-126.776
X62.443Y-61.269
X63.178Y-76.989
X63.85Y-124.725
X68.595Y-77.252
X69.328Y-92.964
X70.882Y-111.802
X73.626Y-54.406
X74.745Y-93.227
X76.305Y-111.781
X79.043Y-54.669
X79.778Y-70.389
X85.195Y-70.652
X85.953Y-86.339
X89.001Y-44.581
X91.37Y-86.602
X94.418Y-44.844
X95.153Y-60.564
X100.57Y-60.827
X101.328Y-76.539
X106.745Y-76.802
X107.453Y-42.764
X112.87Y-43.027
X113.626Y-58.756
X119.043Y-59.019
X119.778Y-74.714
X124.378Y-36.964
X125.195Y-74.977
X129.795Y-37.227
X135.128Y-64.914
X140.545Y-65.177
X141.326Y-80.881
X146.743Y-81.144
T3
G00X54.881Y-96.682
M15
G01X55.307Y-96.421
M16
G05
G00X57.439Y-95.115
M15
G01X57.865Y-94.853
M16
G05
G00X60.849Y-93.025
M15
G01X61.276Y-92.763
M16
G05
G00X64.323Y-95.822
M15
G01X64.749Y-95.561
M16
G05
T0
M30
