%TF.GenerationSoftware,KiCad,Pcbnew,(6.0.11)*%
%TF.CreationDate,2024-04-13T23:11:30+09:00*%
%TF.ProjectId,haqua34_left-bottom-plate,68617175-6133-4345-9f6c-6566742d626f,rev?*%
%TF.SameCoordinates,Original*%
%TF.FileFunction,Copper,L1,Top*%
%TF.FilePolarity,Positive*%
%FSLAX46Y46*%
G04 Gerber Fmt 4.6, Leading zero omitted, Abs format (unit mm)*
G04 Created by KiCad (PCBNEW (6.0.11)) date 2024-04-13 23:11:30*
%MOMM*%
%LPD*%
G01*
G04 APERTURE LIST*
G04 Aperture macros list*
%AMHorizOval*
0 Thick line with rounded ends*
0 $1 width*
0 $2 $3 position (X,Y) of the first rounded end (center of the circle)*
0 $4 $5 position (X,Y) of the second rounded end (center of the circle)*
0 Add line between two ends*
20,1,$1,$2,$3,$4,$5,0*
0 Add two circle primitives to create the rounded ends*
1,1,$1,$2,$3*
1,1,$1,$4,$5*%
G04 Aperture macros list end*
%ADD10C,0.350000*%
%ADD11HorizOval,2.399999X-1.550493X0.564333X1.550493X-0.564333X0*%
%ADD12HorizOval,1.999999X-0.341056X0.208999X0.341056X-0.208999X0*%
%ADD13HorizOval,2.399999X-1.518833X0.644706X1.518833X-0.644706X0*%
%ADD14HorizOval,2.399999X-1.166726X1.166726X1.166726X-1.166726X0*%
G04 APERTURE END LIST*
D10*
X93031691Y-50718889D03*
D11*
X99676843Y-48542407D03*
D10*
X92201860Y-54460731D03*
X103368309Y-54481111D03*
X96182081Y-58144186D03*
X98200000Y-52600000D03*
X97331691Y-89293889D03*
X102500000Y-91175000D03*
D11*
X103976843Y-87117407D03*
D10*
X100482081Y-96719186D03*
X107668309Y-93056111D03*
X96501860Y-93035731D03*
D12*
X115281120Y-101948803D03*
X117839040Y-103516299D03*
X112786093Y-95493973D03*
X111870559Y-99858809D03*
D10*
X80832081Y-48344186D03*
X77681691Y-40918889D03*
X82850000Y-42800000D03*
X88018309Y-44681111D03*
D11*
X84326843Y-38742407D03*
D10*
X76851860Y-44660731D03*
X106312777Y-111999021D03*
D13*
X102937177Y-105875260D03*
D10*
X98944686Y-115280979D03*
X95162697Y-111394263D03*
X101250000Y-109850000D03*
X96187223Y-107700979D03*
D11*
X78176843Y-54742407D03*
D10*
X81868309Y-60681111D03*
X74682081Y-64344186D03*
X70701860Y-60660731D03*
X76700000Y-58800000D03*
X71531691Y-56918889D03*
D11*
X110151843Y-71117407D03*
D10*
X113843309Y-77056111D03*
X102676860Y-77035731D03*
X108675000Y-75175000D03*
X106657081Y-80719186D03*
X103506691Y-73293889D03*
X114825000Y-59225000D03*
X108826860Y-61085731D03*
X109656691Y-57343889D03*
D11*
X116301843Y-55167407D03*
D10*
X112807081Y-64769186D03*
X119993309Y-61106111D03*
X86906691Y-66693889D03*
D11*
X93551843Y-64517407D03*
D10*
X97243309Y-70456111D03*
X92075000Y-68575000D03*
X90057081Y-74119186D03*
X86076860Y-70435731D03*
X58225000Y-56950000D03*
X53056691Y-55068889D03*
X52226860Y-58810731D03*
X63393309Y-58831111D03*
X56207081Y-62494186D03*
D11*
X59701843Y-52892407D03*
D10*
X57243309Y-74806111D03*
X50057081Y-78469186D03*
X46076860Y-74785731D03*
X46906691Y-71043889D03*
X52075000Y-72925000D03*
D11*
X53551843Y-68867407D03*
D10*
X65356691Y-72843889D03*
X64526860Y-76585731D03*
D11*
X72001843Y-70667407D03*
D10*
X70525000Y-74725000D03*
X68507081Y-80269186D03*
X75693309Y-76606111D03*
X130659000Y-86905000D03*
X130659000Y-84365000D03*
X145899000Y-74205000D03*
X143359000Y-92188200D03*
X130659000Y-79285000D03*
X145899000Y-89445000D03*
X130659000Y-81825000D03*
X145899000Y-81825000D03*
X145899000Y-86905000D03*
X130659000Y-91985000D03*
X145899000Y-91985000D03*
X145899000Y-71665000D03*
X135739000Y-92188200D03*
X140819000Y-92188200D03*
X145899000Y-79285000D03*
X130659000Y-76745000D03*
X145899000Y-76745000D03*
X130659000Y-89445000D03*
X133199000Y-92188200D03*
X130659000Y-71665000D03*
X130659000Y-74205000D03*
X138279000Y-92188200D03*
X145899000Y-84365000D03*
X111403070Y-128221930D03*
X111685913Y-120160913D03*
X115575000Y-124050000D03*
X109352460Y-123201472D03*
X119464087Y-127939087D03*
D14*
X118628287Y-120996713D03*
D10*
X58401860Y-42860731D03*
X59231691Y-39118889D03*
X62382081Y-46544186D03*
X64400000Y-41000000D03*
X69568309Y-42881111D03*
D11*
X65876843Y-36942407D03*
D10*
X47473157Y-35175000D03*
X42304848Y-33293889D03*
X52641466Y-37056111D03*
X41475017Y-37035731D03*
D11*
X48950000Y-31117407D03*
D10*
X45455238Y-40719186D03*
X91068309Y-86456111D03*
X85900000Y-84575000D03*
X83882081Y-90119186D03*
X79901860Y-86435731D03*
D11*
X87376843Y-80517407D03*
D10*
X80731691Y-82693889D03*
X34682081Y-68644186D03*
X30701860Y-64960731D03*
X36700000Y-63100000D03*
D11*
X38176843Y-59042407D03*
D10*
X41868309Y-64981111D03*
X31531691Y-61218889D03*
X24601860Y-80960731D03*
X30600000Y-79100000D03*
X25431691Y-77218889D03*
X28582081Y-84644186D03*
X35768309Y-80981111D03*
D11*
X32076843Y-75042407D03*
M02*
