M48
METRIC,TZ
T1C1.219
T2C1.223
T3C1.700
T4C2.000
T5C2.400
T6C5.000
%
G90
G05
T1
X130659Y-71665
X130659Y-74205
X130659Y-76745
X130659Y-79285
X130659Y-81825
X130659Y-84365
X130659Y-89445
X133199Y-92188
X135739Y-92188
X138279Y-92188
X140819Y-92188
X143359Y-92188
X145899Y-71665
X145899Y-74205
X145899Y-76745
X145899Y-79285
X145899Y-81825
X145899Y-84365
X145899Y-86905
X145899Y-89445
X145899Y-91985
T2
X130659Y-86905
X130659Y-91985
T3
X25432Y-77219
X31532Y-61219
X35768Y-80981
X41868Y-64981
X42305Y-33294
X46907Y-71044
X52641Y-37056
X53057Y-55069
X57243Y-74806
X59232Y-39119
X63393Y-58831
X65357Y-72844
X69568Y-42881
X71532Y-56919
X75693Y-76606
X77682Y-40919
X80732Y-82694
X81868Y-60681
X86907Y-66694
X88018Y-44681
X91068Y-86456
X93032Y-50719
X96187Y-107701
X97243Y-70456
X97332Y-89294
X103368Y-54481
X103507Y-73294
X106313Y-111999
X107668Y-93056
X109657Y-57344
X111686Y-120161
X113843Y-77056
X119464Y-127939
X119993Y-61106
T5
X24602Y-80961
X28582Y-84644
X30702Y-64961
X34682Y-68644
X41475Y-37036
X45455Y-40719
X46077Y-74786
X50057Y-78469
X52227Y-58811
X56207Y-62494
X58402Y-42861
X62382Y-46544
X64527Y-76586
X68507Y-80269
X70702Y-60661
X74682Y-64344
X76852Y-44661
X79902Y-86436
X80832Y-48344
X83882Y-90119
X86077Y-70436
X90057Y-74119
X92202Y-54461
X95163Y-111394
X96182Y-58144
X96502Y-93036
X98945Y-115281
X100482Y-96719
X102677Y-77036
X106657Y-80719
X108827Y-61086
X109352Y-123201
X111403Y-128222
X112807Y-64769
T6
X30600Y-79100
X36700Y-63100
X47473Y-35175
X52075Y-72925
X58225Y-56950
X64400Y-41000
X70525Y-74725
X76700Y-58800
X82850Y-42800
X85900Y-84575
X92075Y-68575
X98200Y-52600
X101250Y-109850
X102500Y-91175
X108675Y-75175
X114825Y-59225
X115575Y-124050
T4
G00X112212Y-100068
M15
G01X111530Y-99650
M16
G05
G00X113127Y-95703
M15
G01X112445Y-95285
M16
G05
G00X115622Y-102158
M15
G01X114940Y-101740
M16
G05
G00X118180Y-103725
M15
G01X117498Y-103307
M16
G05
T5
G00X33627Y-75607
M15
G01X30526Y-74478
M16
G05
G00X39727Y-59607
M15
G01X36626Y-58478
M16
G05
G00X50500Y-31682
M15
G01X47400Y-30553
M16
G05
G00X55102Y-69432
M15
G01X52001Y-68303
M16
G05
G00X61252Y-53457
M15
G01X58151Y-52328
M16
G05
G00X67427Y-37507
M15
G01X64326Y-36378
M16
G05
G00X73552Y-71232
M15
G01X70451Y-70103
M16
G05
G00X79727Y-55307
M15
G01X76626Y-54178
M16
G05
G00X85877Y-39307
M15
G01X82776Y-38178
M16
G05
G00X88927Y-81082
M15
G01X85826Y-79953
M16
G05
G00X95102Y-65082
M15
G01X92001Y-63953
M16
G05
G00X101227Y-49107
M15
G01X98126Y-47978
M16
G05
G00X104456Y-106520
M15
G01X101418Y-105231
M16
G05
G00X105527Y-87682
M15
G01X102426Y-86553
M16
G05
G00X111702Y-71682
M15
G01X108601Y-70553
M16
G05
G00X117852Y-55732
M15
G01X114751Y-54603
M16
G05
G00X119795Y-122163
M15
G01X117462Y-119830
M16
G05
T0
M30
