%TF.GenerationSoftware,KiCad,Pcbnew,(6.0.11)*%
%TF.CreationDate,2024-04-13T23:14:32+09:00*%
%TF.ProjectId,haqua34_right,68617175-6133-4345-9f72-696768742e6b,rev?*%
%TF.SameCoordinates,Original*%
%TF.FileFunction,Soldermask,Bot*%
%TF.FilePolarity,Negative*%
%FSLAX46Y46*%
G04 Gerber Fmt 4.6, Leading zero omitted, Abs format (unit mm)*
G04 Created by KiCad (PCBNEW (6.0.11)) date 2024-04-13 23:14:32*
%MOMM*%
%LPD*%
G01*
G04 APERTURE LIST*
G04 Aperture macros list*
%AMHorizOval*
0 Thick line with rounded ends*
0 $1 width*
0 $2 $3 position (X,Y) of the first rounded end (center of the circle)*
0 $4 $5 position (X,Y) of the second rounded end (center of the circle)*
0 Add line between two ends*
20,1,$1,$2,$3,$4,$5,0*
0 Add two circle primitives to create the rounded ends*
1,1,$1,$2,$3*
1,1,$1,$4,$5*%
%AMRotRect*
0 Rectangle, with rotation*
0 The origin of the aperture is its center*
0 $1 length*
0 $2 width*
0 $3 Rotation angle, in degrees counterclockwise*
0 Add horizontal line*
21,1,$1,$2,0,0,$3*%
G04 Aperture macros list end*
%ADD10C,1.700000*%
%ADD11C,5.000000*%
%ADD12C,2.000000*%
%ADD13RotRect,1.300000X0.950000X200.000000*%
%ADD14C,1.200000*%
%ADD15HorizOval,1.700000X0.341056X0.208999X-0.341056X-0.208999X0*%
%ADD16RotRect,1.300000X0.950000X203.000000*%
%ADD17RotRect,1.300000X0.950000X225.000000*%
G04 APERTURE END LIST*
D10*
%TO.C,SW4*%
X105683534Y-39363704D03*
X116020152Y-35601482D03*
D11*
X110851843Y-37482593D03*
D12*
X112869762Y-43026779D03*
X107453056Y-42763526D03*
%TD*%
D13*
%TO.C,D2*%
X77225000Y-44475000D03*
X73889092Y-45689172D03*
%TD*%
D11*
%TO.C,SW15*%
X144725000Y-75600000D03*
D10*
X139556691Y-77481111D03*
X149893309Y-73718889D03*
D12*
X146742919Y-81144186D03*
X141326213Y-80880933D03*
%TD*%
D14*
%TO.C,J1*%
X60625000Y-95625000D03*
X54656519Y-99282490D03*
D15*
X64535960Y-95691299D03*
X55094025Y-96551448D03*
X57651945Y-94983953D03*
X61062506Y-92893958D03*
%TD*%
D11*
%TO.C,SW3*%
X92400000Y-39300000D03*
D10*
X87231691Y-41181111D03*
X97568309Y-37418889D03*
D12*
X94417919Y-44844186D03*
X89001213Y-44580933D03*
%TD*%
D13*
%TO.C,D9*%
X117225000Y-48825000D03*
X113889092Y-50039172D03*
%TD*%
D10*
%TO.C,SW16*%
X63567374Y-116664200D03*
X55789200Y-124442374D03*
D11*
X59678287Y-120553287D03*
D12*
X63850217Y-124725217D03*
X58829759Y-126775827D03*
%TD*%
D13*
%TO.C,D10*%
X138717954Y-54967914D03*
X135382046Y-56182086D03*
%TD*%
%TO.C,D8*%
X98742954Y-50617914D03*
X95407046Y-51832086D03*
%TD*%
%TO.C,D13*%
X104942954Y-66592914D03*
X101607046Y-67807086D03*
%TD*%
D10*
%TO.C,SW8*%
X93383534Y-57163704D03*
D11*
X98551843Y-55282593D03*
D10*
X103720152Y-53401482D03*
D12*
X100569762Y-60826779D03*
X95153056Y-60563526D03*
%TD*%
D10*
%TO.C,SW10*%
X143695152Y-57751482D03*
D11*
X138526843Y-59632593D03*
D10*
X133358534Y-61513704D03*
D12*
X140544762Y-65176779D03*
X135128056Y-64913526D03*
%TD*%
D10*
%TO.C,SW5*%
X132945152Y-29801482D03*
D11*
X127776843Y-31682593D03*
D10*
X122608534Y-33563704D03*
D12*
X129794762Y-37226779D03*
X124378056Y-36963526D03*
%TD*%
D11*
%TO.C,SW9*%
X117025000Y-53475000D03*
D10*
X122193309Y-51593889D03*
X111856691Y-55356111D03*
D12*
X119042919Y-59019186D03*
X113626213Y-58755933D03*
%TD*%
D13*
%TO.C,D6*%
X66792954Y-67042914D03*
X63457046Y-68257086D03*
%TD*%
%TO.C,D3*%
X92592954Y-34642914D03*
X89257046Y-35857086D03*
%TD*%
%TO.C,D15*%
X144942954Y-70942914D03*
X141607046Y-72157086D03*
%TD*%
%TO.C,D11*%
X72942954Y-83017914D03*
X69607046Y-84232086D03*
%TD*%
D10*
%TO.C,SW7*%
X78008534Y-66988704D03*
X88345152Y-63226482D03*
D11*
X83176843Y-65107593D03*
D12*
X85194762Y-70651779D03*
X79778056Y-70388526D03*
%TD*%
D13*
%TO.C,D4*%
X111042954Y-32842914D03*
X107707046Y-34057086D03*
%TD*%
%TO.C,D1*%
X60617954Y-51067914D03*
X57282046Y-52282086D03*
%TD*%
D11*
%TO.C,SW12*%
X89351843Y-81057593D03*
D10*
X94520152Y-79176482D03*
X84183534Y-82938704D03*
D12*
X91369762Y-86601779D03*
X85953056Y-86338526D03*
%TD*%
D13*
%TO.C,D7*%
X83392954Y-60442914D03*
X80057046Y-61657086D03*
%TD*%
D11*
%TO.C,SW13*%
X104726843Y-71257593D03*
D10*
X99558534Y-73138704D03*
X109895152Y-69376482D03*
D12*
X106744762Y-76801779D03*
X101328056Y-76538526D03*
%TD*%
D13*
%TO.C,D14*%
X123392954Y-64767914D03*
X120057046Y-65982086D03*
%TD*%
D16*
%TO.C,D17*%
X73958896Y-101681452D03*
X70691104Y-103068548D03*
%TD*%
D17*
%TO.C,D16*%
X57905115Y-116244885D03*
X55394885Y-118755115D03*
%TD*%
D10*
%TO.C,SW17*%
X68937223Y-108499021D03*
D11*
X74000000Y-106350000D03*
D10*
X79062777Y-104200979D03*
D12*
X76305314Y-111780979D03*
X70882254Y-111801574D03*
%TD*%
D11*
%TO.C,SW2*%
X77025000Y-49125000D03*
D10*
X71856691Y-51006111D03*
X82193309Y-47243889D03*
D12*
X79042919Y-54669186D03*
X73626213Y-54405933D03*
%TD*%
D10*
%TO.C,SW1*%
X65593309Y-53843889D03*
X55256691Y-57606111D03*
D11*
X60425000Y-55725000D03*
D12*
X62442919Y-61269186D03*
X57026213Y-61005933D03*
%TD*%
D13*
%TO.C,D12*%
X89567954Y-76392914D03*
X86232046Y-77607086D03*
%TD*%
%TO.C,D5*%
X127992954Y-27017914D03*
X124657046Y-28232086D03*
%TD*%
D10*
%TO.C,SW14*%
X128345152Y-67551482D03*
D11*
X123176843Y-69432593D03*
D10*
X118008534Y-71313704D03*
D12*
X125194762Y-74976779D03*
X119778056Y-74713526D03*
%TD*%
D10*
%TO.C,SW6*%
X61408534Y-73588704D03*
D11*
X66576843Y-71707593D03*
D10*
X71745152Y-69826482D03*
D12*
X68594762Y-77251779D03*
X63178056Y-76988526D03*
%TD*%
D10*
%TO.C,SW11*%
X67558534Y-89563704D03*
X77895152Y-85801482D03*
D11*
X72726843Y-87682593D03*
D12*
X74744762Y-93226779D03*
X69328056Y-92963526D03*
%TD*%
M02*
