M48
METRIC,TZ
T1C1.200
T2C1.700
T3C5.000
%
G90
G05
T1
X54657Y-99282
X60625Y-95625
T2
X55257Y-57606
X55789Y-124442
X61409Y-73589
X63567Y-116664
X65593Y-53844
X67559Y-89564
X68937Y-108499
X71745Y-69826
X71857Y-51006
X77895Y-85801
X78009Y-66989
X79063Y-104201
X82193Y-47244
X84184Y-82939
X87232Y-41181
X88345Y-63226
X93384Y-57164
X94520Y-79176
X97568Y-37419
X99559Y-73139
X103720Y-53401
X105684Y-39364
X109895Y-69376
X111857Y-55356
X116020Y-35601
X118009Y-71314
X122193Y-51594
X122609Y-33564
X128345Y-67551
X132945Y-29801
X133359Y-61514
X139557Y-77481
X143695Y-57751
X149893Y-73719
T3
X59678Y-120553
X60425Y-55725
X66577Y-71708
X72727Y-87683
X74000Y-106350
X77025Y-49125
X83177Y-65108
X89352Y-81058
X92400Y-39300
X98552Y-55283
X104727Y-71258
X110852Y-37483
X117025Y-53475
X123177Y-69433
X127777Y-31683
X138527Y-59633
X144725Y-75600
T0
M30
