M48
METRIC,TZ
T1C0.400
T2C0.800
T3C1.000
T4C1.200
%
G90
G05
T1
X57800Y-113825
X66265Y-65415
X73325Y-80650
X74225Y-99075
X81975Y-56200
X82825Y-59975
X88000Y-74575
X97125Y-46100
X97565Y-48915
X103775Y-64575
X116075Y-47075
X116175Y-44775
X123000Y-62250
X133550Y-41050
X139100Y-52150
X143325Y-69025
T2
X29284Y-68190
X29284Y-70730
X29284Y-73270
X29284Y-75810
X29284Y-78350
X29284Y-80890
X29284Y-83430
X29284Y-85970
X29284Y-88510
X31824Y-88720
X34364Y-88720
X36904Y-88720
X39444Y-88720
X41984Y-88720
X44524Y-68190
X44524Y-70730
X44524Y-73270
X44524Y-75810
X44524Y-78350
X44524Y-80890
X44524Y-83430
X44524Y-85970
X44524Y-88510
T4
X57026Y-61006
X58830Y-126776
X62443Y-61269
X63178Y-76989
X63850Y-124725
X68595Y-77252
X69328Y-92964
X70882Y-111802
X73626Y-54406
X74745Y-93227
X76305Y-111781
X79043Y-54669
X79778Y-70389
X85195Y-70652
X85953Y-86339
X89001Y-44581
X91370Y-86602
X94418Y-44844
X95153Y-60564
X100570Y-60827
X101328Y-76539
X106745Y-76802
X107453Y-42764
X112870Y-43027
X113626Y-58756
X119043Y-59019
X119778Y-74714
X124378Y-36964
X125195Y-74977
X129795Y-37227
X135128Y-64914
X140545Y-65177
X141326Y-80881
X146743Y-81144
T3
G00X54881Y-96682
M15
G01X55307Y-96421
M16
G05
G00X57439Y-95115
M15
G01X57865Y-94853
M16
G05
G00X60849Y-93025
M15
G01X61276Y-92763
M16
G05
G00X64323Y-95822
M15
G01X64749Y-95561
M16
G05
T0
M30
