M48
; DRILL file {KiCad (6.0.11)} date Sat Apr 13 23:12:42 2024
; FORMAT={-:-/ absolute / metric / decimal}
; #@! TF.CreationDate,2024-04-13T23:12:42+09:00
; #@! TF.GenerationSoftware,Kicad,Pcbnew,(6.0.11)
; #@! TF.FileFunction,MixedPlating,1,2
FMAT,2
METRIC
; #@! TA.AperFunction,Plated,PTH,ViaDrill
T1C0.400
; #@! TA.AperFunction,Plated,PTH,ComponentDrill
T2C0.800
; #@! TA.AperFunction,Plated,PTH,ComponentDrill
T3C1.000
; #@! TA.AperFunction,Plated,PTH,ComponentDrill
T4C1.200
; #@! TA.AperFunction,NonPlated,NPTH,ComponentDrill
T5C1.200
; #@! TA.AperFunction,NonPlated,NPTH,ComponentDrill
T6C1.700
; #@! TA.AperFunction,NonPlated,NPTH,ComponentDrill
T7C5.000
%
G90
G05
T1
X34.883Y-74.55
X43.55Y-53.125
X55.175Y-66.6
X62.287Y-51.787
X73.725Y-68.125
X79.65Y-53.5
X83.275Y-52.575
X89.25Y-78.275
X95.0Y-62.275
X104.85Y-104.175
X105.4Y-84.275
X109.825Y-69.9
X114.607Y-73.6
X116.65Y-72.999
X117.525Y-72.275
X118.625Y-89.275
X119.8Y-69.5
X119.825Y-70.875
X119.825Y-88.3
X120.25Y-119.45
X126.219Y-96.019
T2
X130.659Y-71.665
X130.659Y-74.205
X130.659Y-76.745
X130.659Y-79.285
X130.659Y-81.825
X130.659Y-84.365
X130.659Y-86.905
X130.659Y-89.445
X130.659Y-91.985
X133.199Y-92.195
X135.739Y-92.195
X138.279Y-92.195
X140.819Y-92.195
X143.359Y-92.195
X145.899Y-71.665
X145.899Y-74.205
X145.899Y-76.745
X145.899Y-79.285
X145.899Y-81.825
X145.899Y-84.365
X145.899Y-86.905
X145.899Y-89.445
X145.899Y-91.985
T4
X24.602Y-80.961
X28.582Y-84.644
X30.702Y-64.961
X34.682Y-68.644
X41.475Y-37.036
X45.455Y-40.719
X46.077Y-74.786
X50.057Y-78.469
X52.227Y-58.811
X56.207Y-62.494
X58.402Y-42.861
X62.382Y-46.544
X64.527Y-76.586
X68.507Y-80.269
X70.702Y-60.661
X74.682Y-64.344
X76.852Y-44.661
X79.902Y-86.436
X80.832Y-48.344
X83.882Y-90.119
X86.077Y-70.436
X90.057Y-74.119
X92.202Y-54.461
X95.163Y-111.394
X96.182Y-58.144
X96.502Y-93.036
X98.945Y-115.281
X100.482Y-96.719
X102.677Y-77.036
X106.657Y-80.719
X108.827Y-61.086
X109.352Y-123.201
X111.403Y-128.222
X112.807Y-64.769
T5
X114.503Y-99.009
X120.471Y-102.666
T6
X25.432Y-77.219
X31.532Y-61.219
X35.768Y-80.981
X41.868Y-64.981
X42.305Y-33.294
X46.907Y-71.044
X52.641Y-37.056
X53.057Y-55.069
X57.243Y-74.806
X59.232Y-39.119
X63.393Y-58.831
X65.357Y-72.844
X69.568Y-42.881
X71.532Y-56.919
X75.693Y-76.606
X77.682Y-40.919
X80.732Y-82.694
X81.868Y-60.681
X86.907Y-66.694
X88.018Y-44.681
X91.068Y-86.456
X93.032Y-50.719
X96.187Y-107.701
X97.243Y-70.456
X97.332Y-89.294
X103.368Y-54.481
X103.507Y-73.294
X106.313Y-111.999
X107.668Y-93.056
X109.657Y-57.344
X111.686Y-120.161
X113.843Y-77.056
X119.464Y-127.939
X119.993Y-61.106
T7
X30.6Y-79.1
X36.7Y-63.1
X47.473Y-35.175
X52.075Y-72.925
X58.225Y-56.95
X64.4Y-41.0
X70.525Y-74.725
X76.7Y-58.8
X82.85Y-42.8
X85.9Y-84.575
X92.075Y-68.575
X98.2Y-52.6
X101.25Y-109.85
X102.5Y-91.175
X108.675Y-75.175
X114.825Y-59.225
X115.575Y-124.05
T3
G00X112.084Y-99.989
M15
G01X111.657Y-99.728
M16
G05
G00X112.999Y-95.625
M15
G01X112.573Y-95.363
M16
G05
G00X115.494Y-102.079
M15
G01X115.068Y-101.818
M16
G05
G00X118.052Y-103.647
M15
G01X117.626Y-103.386
M16
G05
T0
M30
