M48
METRIC,TZ
T1C1.219
T2C1.223
T3C1.700
T4C2.000
T5C2.400
T6C5.000
%
G90
G05
T1
X29284Y-68190
X29284Y-70730
X29284Y-73270
X29284Y-75810
X29284Y-78350
X29284Y-80890
X29284Y-85970
X31824Y-88713
X34364Y-88713
X36904Y-88713
X39444Y-88713
X41984Y-88713
X44524Y-68190
X44524Y-70730
X44524Y-73270
X44524Y-75810
X44524Y-78350
X44524Y-80890
X44524Y-83430
X44524Y-85970
X44524Y-88510
T2
X29284Y-83430
X29284Y-88510
T3
X55257Y-57606
X55789Y-124442
X61409Y-73589
X63567Y-116664
X65593Y-53844
X67559Y-89564
X68937Y-108499
X71745Y-69826
X71857Y-51006
X77895Y-85801
X78009Y-66989
X79063Y-104201
X82193Y-47244
X84184Y-82939
X87232Y-41181
X88345Y-63226
X93384Y-57164
X94520Y-79176
X97568Y-37419
X99559Y-73139
X103720Y-53401
X105684Y-39364
X109895Y-69376
X111857Y-55356
X116020Y-35601
X118009Y-71314
X122193Y-51594
X122609Y-33564
X128345Y-67551
X132945Y-29801
X133359Y-61514
X139557Y-77481
X143695Y-57751
X149893Y-73719
T5
X57026Y-61006
X58830Y-126776
X62443Y-61269
X63178Y-76989
X63850Y-124725
X68595Y-77252
X69328Y-92964
X70882Y-111802
X73626Y-54406
X74745Y-93227
X76305Y-111781
X79043Y-54669
X79778Y-70389
X85195Y-70652
X85953Y-86339
X89001Y-44581
X91370Y-86602
X94418Y-44844
X95153Y-60564
X100570Y-60827
X101328Y-76539
X106745Y-76802
X107453Y-42764
X112870Y-43027
X113626Y-58756
X119043Y-59019
X119778Y-74714
X124378Y-36964
X125195Y-74977
X129795Y-37227
X135128Y-64914
X140545Y-65177
X141326Y-80881
X146743Y-81144
T6
X59678Y-120553
X60425Y-55725
X66577Y-71708
X72727Y-87683
X74000Y-106350
X77025Y-49125
X83177Y-65108
X89352Y-81058
X92400Y-39300
X98552Y-55283
X104727Y-71258
X110852Y-37483
X117025Y-53475
X123177Y-69433
X127777Y-31683
X138527Y-59633
X144725Y-75600
T4
G00X54753Y-96760
M15
G01X55435Y-96342
M16
G05
G00X57311Y-95193
M15
G01X57993Y-94775
M16
G05
G00X60721Y-93103
M15
G01X61404Y-92685
M16
G05
G00X64195Y-95900
M15
G01X64877Y-95482
M16
G05
T5
G00X57792Y-116333
M15
G01X55458Y-118667
M16
G05
G00X60499Y-51103
M15
G01X57398Y-52232
M16
G05
G00X66650Y-67086
M15
G01X63550Y-68214
M16
G05
G00X72800Y-83061
M15
G01X69700Y-84189
M16
G05
G00X73832Y-101731
M15
G01X70794Y-103020
M16
G05
G00X77099Y-44503
M15
G01X73998Y-45632
M16
G05
G00X83250Y-60486
M15
G01X80150Y-61614
M16
G05
G00X89425Y-76436
M15
G01X86325Y-77564
M16
G05
G00X92474Y-34678
M15
G01X89373Y-35807
M16
G05
G00X98625Y-50661
M15
G01X95525Y-51789
M16
G05
G00X104800Y-66636
M15
G01X101700Y-67764
M16
G05
G00X110925Y-32861
M15
G01X107825Y-33989
M16
G05
G00X117099Y-48853
M15
G01X113998Y-49982
M16
G05
G00X123250Y-64811
M15
G01X120150Y-65939
M16
G05
G00X127850Y-27061
M15
G01X124750Y-28189
M16
G05
G00X138600Y-55011
M15
G01X135500Y-56139
M16
G05
G00X144799Y-70978
M15
G01X141698Y-72107
M16
G05
T0
M30
