%TF.GenerationSoftware,KiCad,Pcbnew,(6.0.11)*%
%TF.CreationDate,2024-04-13T23:15:29+09:00*%
%TF.ProjectId,haqua34_right-bottom-plate,68617175-6133-4345-9f72-696768742d62,rev?*%
%TF.SameCoordinates,Original*%
%TF.FileFunction,Copper,L1,Top*%
%TF.FilePolarity,Positive*%
%FSLAX46Y46*%
G04 Gerber Fmt 4.6, Leading zero omitted, Abs format (unit mm)*
G04 Created by KiCad (PCBNEW (6.0.11)) date 2024-04-13 23:15:29*
%MOMM*%
%LPD*%
G01*
G04 APERTURE LIST*
G04 Aperture macros list*
%AMHorizOval*
0 Thick line with rounded ends*
0 $1 width*
0 $2 $3 position (X,Y) of the first rounded end (center of the circle)*
0 $4 $5 position (X,Y) of the second rounded end (center of the circle)*
0 Add line between two ends*
20,1,$1,$2,$3,$4,$5,0*
0 Add two circle primitives to create the rounded ends*
1,1,$1,$2,$3*
1,1,$1,$4,$5*%
G04 Aperture macros list end*
%ADD10C,0.350000*%
%ADD11HorizOval,2.399999X-1.550493X-0.564333X1.550493X0.564333X0*%
%ADD12HorizOval,1.999999X0.341056X0.208999X-0.341056X-0.208999X0*%
%ADD13HorizOval,2.399999X-1.166726X-1.166726X1.166726X1.166726X0*%
%ADD14HorizOval,2.399999X-1.518833X-0.644706X1.518833X0.644706X0*%
G04 APERTURE END LIST*
D10*
X105683534Y-39363704D03*
D11*
X109375000Y-33425000D03*
D10*
X107453056Y-42763526D03*
X116020152Y-35601482D03*
X112869762Y-43026779D03*
X110851843Y-37482593D03*
X139556691Y-77481111D03*
X144725000Y-75600000D03*
D11*
X143248157Y-71542407D03*
D10*
X146742919Y-81144186D03*
X149893309Y-73718889D03*
X141326213Y-80880933D03*
D12*
X57651945Y-94983953D03*
X55094025Y-96551448D03*
X64535960Y-95691299D03*
X61062506Y-92893958D03*
D10*
X94417919Y-44844186D03*
X87231691Y-41181111D03*
X92400000Y-39300000D03*
X97568309Y-37418889D03*
D11*
X90923157Y-35242407D03*
D10*
X89001213Y-44580933D03*
X63567374Y-116664200D03*
D13*
X56625000Y-117500000D03*
D10*
X63850217Y-124725217D03*
X58829759Y-126775827D03*
X59678287Y-120553287D03*
X55789200Y-124442374D03*
D11*
X97075000Y-51225000D03*
D10*
X103720152Y-53401482D03*
X100569762Y-60826779D03*
X95153056Y-60563526D03*
X98551843Y-55282593D03*
X93383534Y-57163704D03*
D11*
X137050000Y-55575000D03*
D10*
X143695152Y-57751482D03*
X135128056Y-64913526D03*
X138526843Y-59632593D03*
X140544762Y-65176779D03*
X133358534Y-61513704D03*
X127776843Y-31682593D03*
X124378056Y-36963526D03*
X122608534Y-33563704D03*
D11*
X126300000Y-27625000D03*
D10*
X129794762Y-37226779D03*
X132945152Y-29801482D03*
X111856691Y-55356111D03*
D11*
X115548157Y-49417407D03*
D10*
X122193309Y-51593889D03*
X117025000Y-53475000D03*
X119042919Y-59019186D03*
X113626213Y-58755933D03*
X83176843Y-65107593D03*
X78008534Y-66988704D03*
X79778056Y-70388526D03*
X88345152Y-63226482D03*
X85194762Y-70651779D03*
D11*
X81700000Y-61050000D03*
D10*
X94520152Y-79176482D03*
X91369762Y-86601779D03*
X85953056Y-86338526D03*
X84183534Y-82938704D03*
X89351843Y-81057593D03*
D11*
X87875000Y-77000000D03*
D10*
X99558534Y-73138704D03*
X101328056Y-76538526D03*
D11*
X103250000Y-67200000D03*
D10*
X104726843Y-71257593D03*
X106744762Y-76801779D03*
X109895152Y-69376482D03*
X29284000Y-83430000D03*
X29284000Y-80890000D03*
X44524000Y-70730000D03*
X41984000Y-88713200D03*
X29284000Y-75810000D03*
X44524000Y-85970000D03*
X29284000Y-78350000D03*
X44524000Y-78350000D03*
X44524000Y-83430000D03*
X29284000Y-88510000D03*
X44524000Y-88510000D03*
X44524000Y-68190000D03*
X34364000Y-88713200D03*
X39444000Y-88713200D03*
X44524000Y-75810000D03*
X29284000Y-73270000D03*
X44524000Y-73270000D03*
X29284000Y-85970000D03*
X31824000Y-88713200D03*
X29284000Y-68190000D03*
X29284000Y-70730000D03*
X36904000Y-88713200D03*
X44524000Y-80890000D03*
X76305314Y-111780979D03*
X68937223Y-108499021D03*
X74000000Y-106350000D03*
X70882254Y-111801574D03*
X79062777Y-104200979D03*
D14*
X72312823Y-102375260D03*
D10*
X73626213Y-54405933D03*
X71856691Y-51006111D03*
X79042919Y-54669186D03*
X77025000Y-49125000D03*
X82193309Y-47243889D03*
D11*
X75548157Y-45067407D03*
D10*
X60425000Y-55725000D03*
X55256691Y-57606111D03*
X65593309Y-53843889D03*
X57026213Y-61005933D03*
D11*
X58948157Y-51667407D03*
D10*
X62442919Y-61269186D03*
X128345152Y-67551482D03*
X123176843Y-69432593D03*
X125194762Y-74976779D03*
X119778056Y-74713526D03*
D11*
X121700000Y-65375000D03*
D10*
X118008534Y-71313704D03*
X68594762Y-77251779D03*
X63178056Y-76988526D03*
X66576843Y-71707593D03*
D11*
X65100000Y-67650000D03*
D10*
X71745152Y-69826482D03*
X61408534Y-73588704D03*
X69328056Y-92963526D03*
X72726843Y-87682593D03*
X67558534Y-89563704D03*
X74744762Y-93226779D03*
X77895152Y-85801482D03*
D11*
X71250000Y-83625000D03*
M02*
