%TF.GenerationSoftware,KiCad,Pcbnew,(6.0.11)*%
%TF.CreationDate,2024-04-13T23:12:42+09:00*%
%TF.ProjectId,haqua34_left,68617175-6133-4345-9f6c-6566742e6b69,rev?*%
%TF.SameCoordinates,Original*%
%TF.FileFunction,Soldermask,Bot*%
%TF.FilePolarity,Negative*%
%FSLAX46Y46*%
G04 Gerber Fmt 4.6, Leading zero omitted, Abs format (unit mm)*
G04 Created by KiCad (PCBNEW (6.0.11)) date 2024-04-13 23:12:42*
%MOMM*%
%LPD*%
G01*
G04 APERTURE LIST*
G04 Aperture macros list*
%AMHorizOval*
0 Thick line with rounded ends*
0 $1 width*
0 $2 $3 position (X,Y) of the first rounded end (center of the circle)*
0 $4 $5 position (X,Y) of the second rounded end (center of the circle)*
0 Add line between two ends*
20,1,$1,$2,$3,$4,$5,0*
0 Add two circle primitives to create the rounded ends*
1,1,$1,$2,$3*
1,1,$1,$4,$5*%
%AMRotRect*
0 Rectangle, with rotation*
0 The origin of the aperture is its center*
0 $1 length*
0 $2 width*
0 $3 Rotation angle, in degrees counterclockwise*
0 Add horizontal line*
21,1,$1,$2,0,0,$3*%
G04 Aperture macros list end*
%ADD10C,1.200000*%
%ADD11HorizOval,1.700000X-0.341056X0.208999X0.341056X-0.208999X0*%
%ADD12C,2.000000*%
%ADD13C,5.000000*%
%ADD14C,1.700000*%
%ADD15RotRect,1.300000X0.950000X160.000000*%
%ADD16RotRect,1.300000X0.950000X135.000000*%
%ADD17RotRect,1.300000X0.950000X157.000000*%
G04 APERTURE END LIST*
D10*
%TO.C,J1*%
X114502559Y-99008762D03*
X120471040Y-102666252D03*
D11*
X112786093Y-95493973D03*
X117839040Y-103516299D03*
X115281120Y-101948803D03*
X111870559Y-99858809D03*
%TD*%
D12*
%TO.C,SW4*%
X92201860Y-54460731D03*
X96182081Y-58144186D03*
D13*
X98200000Y-52600000D03*
D14*
X103368309Y-54481111D03*
X93031691Y-50718889D03*
%TD*%
D15*
%TO.C,D2*%
X64207046Y-36342914D03*
X67542954Y-37557086D03*
%TD*%
D12*
%TO.C,SW15*%
X96501860Y-93035731D03*
X100482081Y-96719186D03*
D14*
X107668309Y-93056111D03*
X97331691Y-89293889D03*
D13*
X102500000Y-91175000D03*
%TD*%
D12*
%TO.C,SW3*%
X76851860Y-44660731D03*
X80832081Y-48344186D03*
D14*
X88018309Y-44681111D03*
X77681691Y-40918889D03*
D13*
X82850000Y-42800000D03*
%TD*%
D15*
%TO.C,D9*%
X91882046Y-63917914D03*
X95217954Y-65132086D03*
%TD*%
D12*
%TO.C,SW16*%
X95162697Y-111394263D03*
X98944686Y-115280979D03*
D13*
X101250000Y-109850000D03*
D14*
X96187223Y-107700979D03*
X106312777Y-111999021D03*
%TD*%
D15*
%TO.C,D10*%
X108482046Y-70517914D03*
X111817954Y-71732086D03*
%TD*%
%TO.C,D8*%
X76557046Y-54167914D03*
X79892954Y-55382086D03*
%TD*%
%TO.C,D13*%
X70332046Y-70067914D03*
X73667954Y-71282086D03*
%TD*%
D12*
%TO.C,SW8*%
X70701860Y-60660731D03*
X74682081Y-64344186D03*
D14*
X81868309Y-60681111D03*
D13*
X76700000Y-58800000D03*
D14*
X71531691Y-56918889D03*
%TD*%
D12*
%TO.C,SW10*%
X102676860Y-77035731D03*
X106657081Y-80719186D03*
D14*
X103506691Y-73293889D03*
D13*
X108675000Y-75175000D03*
D14*
X113843309Y-77056111D03*
%TD*%
D12*
%TO.C,SW5*%
X108826860Y-61085731D03*
X112807081Y-64769186D03*
D14*
X109656691Y-57343889D03*
D13*
X114825000Y-59225000D03*
D14*
X119993309Y-61106111D03*
%TD*%
D12*
%TO.C,SW9*%
X86076860Y-70435731D03*
X90057081Y-74119186D03*
D14*
X86906691Y-66693889D03*
X97243309Y-70456111D03*
D13*
X92075000Y-68575000D03*
%TD*%
D15*
%TO.C,D6*%
X36532046Y-58442914D03*
X39867954Y-59657086D03*
%TD*%
%TO.C,D3*%
X82682046Y-38142914D03*
X86017954Y-39357086D03*
%TD*%
%TO.C,D15*%
X102332046Y-86517914D03*
X105667954Y-87732086D03*
%TD*%
%TO.C,D11*%
X30432046Y-74442914D03*
X33767954Y-75657086D03*
%TD*%
D12*
%TO.C,SW7*%
X52226860Y-58810731D03*
X56207081Y-62494186D03*
D13*
X58225000Y-56950000D03*
D14*
X63393309Y-58831111D03*
X53056691Y-55068889D03*
%TD*%
D15*
%TO.C,D4*%
X98032046Y-47942914D03*
X101367954Y-49157086D03*
%TD*%
%TO.C,D1*%
X47307046Y-30517914D03*
X50642954Y-31732086D03*
%TD*%
D12*
%TO.C,SW12*%
X46076860Y-74785731D03*
X50057081Y-78469186D03*
D14*
X46906691Y-71043889D03*
X57243309Y-74806111D03*
D13*
X52075000Y-72925000D03*
%TD*%
D15*
%TO.C,D7*%
X58057046Y-52292914D03*
X61392954Y-53507086D03*
%TD*%
D12*
%TO.C,SW13*%
X64526860Y-76585731D03*
X68507081Y-80269186D03*
D14*
X75693309Y-76606111D03*
X65356691Y-72843889D03*
D13*
X70525000Y-74725000D03*
%TD*%
D15*
%TO.C,D14*%
X85732046Y-79942914D03*
X89067954Y-81157086D03*
%TD*%
D16*
%TO.C,D17*%
X117369885Y-119769885D03*
X119880115Y-122280115D03*
%TD*%
D17*
%TO.C,D16*%
X101291104Y-105181452D03*
X104558896Y-106568548D03*
%TD*%
D12*
%TO.C,SW17*%
X109352460Y-123201472D03*
X111403070Y-128221930D03*
D14*
X119464087Y-127939087D03*
D13*
X115575000Y-124050000D03*
D14*
X111685913Y-120160913D03*
%TD*%
D12*
%TO.C,SW2*%
X58401860Y-42860731D03*
X62382081Y-46544186D03*
D14*
X69568309Y-42881111D03*
X59231691Y-39118889D03*
D13*
X64400000Y-41000000D03*
%TD*%
D12*
%TO.C,SW1*%
X41475017Y-37035731D03*
X45455238Y-40719186D03*
D13*
X47473157Y-35175000D03*
D14*
X42304848Y-33293889D03*
X52641466Y-37056111D03*
%TD*%
D15*
%TO.C,D12*%
X51907046Y-68267914D03*
X55242954Y-69482086D03*
%TD*%
%TO.C,D5*%
X114657046Y-54592914D03*
X117992954Y-55807086D03*
%TD*%
D12*
%TO.C,SW14*%
X79901860Y-86435731D03*
X83882081Y-90119186D03*
D14*
X80731691Y-82693889D03*
D13*
X85900000Y-84575000D03*
D14*
X91068309Y-86456111D03*
%TD*%
D12*
%TO.C,SW6*%
X30701860Y-64960731D03*
X34682081Y-68644186D03*
D14*
X41868309Y-64981111D03*
D13*
X36700000Y-63100000D03*
D14*
X31531691Y-61218889D03*
%TD*%
D12*
%TO.C,SW11*%
X24601860Y-80960731D03*
X28582081Y-84644186D03*
D13*
X30600000Y-79100000D03*
D14*
X35768309Y-80981111D03*
X25431691Y-77218889D03*
%TD*%
M02*
