%TF.GenerationSoftware,KiCad,Pcbnew,(6.0.11)*%
%TF.CreationDate,2024-04-13T23:12:42+09:00*%
%TF.ProjectId,haqua34_left,68617175-6133-4345-9f6c-6566742e6b69,rev?*%
%TF.SameCoordinates,Original*%
%TF.FileFunction,Copper,L1,Top*%
%TF.FilePolarity,Positive*%
%FSLAX46Y46*%
G04 Gerber Fmt 4.6, Leading zero omitted, Abs format (unit mm)*
G04 Created by KiCad (PCBNEW (6.0.11)) date 2024-04-13 23:12:42*
%MOMM*%
%LPD*%
G01*
G04 APERTURE LIST*
G04 Aperture macros list*
%AMRoundRect*
0 Rectangle with rounded corners*
0 $1 Rounding radius*
0 $2 $3 $4 $5 $6 $7 $8 $9 X,Y pos of 4 corners*
0 Add a 4 corners polygon primitive as box body*
4,1,4,$2,$3,$4,$5,$6,$7,$8,$9,$2,$3,0*
0 Add four circle primitives for the rounded corners*
1,1,$1+$1,$2,$3*
1,1,$1+$1,$4,$5*
1,1,$1+$1,$6,$7*
1,1,$1+$1,$8,$9*
0 Add four rect primitives between the rounded corners*
20,1,$1+$1,$2,$3,$4,$5,0*
20,1,$1+$1,$4,$5,$6,$7,0*
20,1,$1+$1,$6,$7,$8,$9,0*
20,1,$1+$1,$8,$9,$2,$3,0*%
%AMHorizOval*
0 Thick line with rounded ends*
0 $1 width*
0 $2 $3 position (X,Y) of the first rounded end (center of the circle)*
0 $4 $5 position (X,Y) of the second rounded end (center of the circle)*
0 Add line between two ends*
20,1,$1,$2,$3,$4,$5,0*
0 Add two circle primitives to create the rounded ends*
1,1,$1,$2,$3*
1,1,$1,$4,$5*%
G04 Aperture macros list end*
%TA.AperFunction,ComponentPad*%
%ADD10HorizOval,1.700000X-0.341056X0.208999X0.341056X-0.208999X0*%
%TD*%
%TA.AperFunction,ComponentPad*%
%ADD11C,2.000000*%
%TD*%
%TA.AperFunction,ComponentPad*%
%ADD12RoundRect,0.400050X-0.965950X-0.400050X0.965950X-0.400050X0.965950X0.400050X-0.965950X0.400050X0*%
%TD*%
%TA.AperFunction,ComponentPad*%
%ADD13RoundRect,0.393700X-0.393700X-0.994300X0.393700X-0.994300X0.393700X0.994300X-0.393700X0.994300X0*%
%TD*%
%TA.AperFunction,ComponentPad*%
%ADD14RoundRect,0.400000X-0.400000X-0.988000X0.400000X-0.988000X0.400000X0.988000X-0.400000X0.988000X0*%
%TD*%
%TA.AperFunction,ComponentPad*%
%ADD15RoundRect,0.400000X-0.966000X-0.400000X0.966000X-0.400000X0.966000X0.400000X-0.966000X0.400000X0*%
%TD*%
%TA.AperFunction,ViaPad*%
%ADD16C,0.800000*%
%TD*%
%TA.AperFunction,Conductor*%
%ADD17C,0.250000*%
%TD*%
%TA.AperFunction,Conductor*%
%ADD18C,0.500000*%
%TD*%
%ADD19C,0.350000*%
%ADD20HorizOval,1.000000X-0.213160X0.130625X0.213160X-0.130625X0*%
G04 APERTURE END LIST*
D10*
%TO.P,J1,A*%
%TO.N,data-rx-l*%
X112786093Y-95493973D03*
%TO.P,J1,B*%
%TO.N,data-tx-l*%
X117839040Y-103516299D03*
%TO.P,J1,C*%
%TO.N,GND*%
X115281120Y-101948803D03*
%TO.P,J1,D*%
%TO.N,VCC*%
X111870559Y-99858809D03*
%TD*%
D11*
%TO.P,SW4,2,2*%
%TO.N,Net-(D4-Pad2)*%
X92201860Y-54460731D03*
%TO.P,SW4,1,1*%
%TO.N,col3*%
X96182081Y-58144186D03*
%TD*%
%TO.P,SW15,2,2*%
%TO.N,Net-(D15-Pad2)*%
X96501860Y-93035731D03*
%TO.P,SW15,1,1*%
%TO.N,col4*%
X100482081Y-96719186D03*
%TD*%
%TO.P,SW3,2,2*%
%TO.N,Net-(D3-Pad2)*%
X76851860Y-44660731D03*
%TO.P,SW3,1,1*%
%TO.N,col2*%
X80832081Y-48344186D03*
%TD*%
%TO.P,SW16,2,2*%
%TO.N,Net-(D16-Pad2)*%
X95162697Y-111394263D03*
%TO.P,SW16,1,1*%
%TO.N,col3*%
X98944686Y-115280979D03*
%TD*%
%TO.P,SW8,2,2*%
%TO.N,Net-(D8-Pad2)*%
X70701860Y-60660731D03*
%TO.P,SW8,1,1*%
%TO.N,col2*%
X74682081Y-64344186D03*
%TD*%
%TO.P,SW10,2,2*%
%TO.N,Net-(D10-Pad2)*%
X102676860Y-77035731D03*
%TO.P,SW10,1,1*%
%TO.N,col4*%
X106657081Y-80719186D03*
%TD*%
%TO.P,SW5,2,2*%
%TO.N,Net-(D5-Pad2)*%
X108826860Y-61085731D03*
%TO.P,SW5,1,1*%
%TO.N,col4*%
X112807081Y-64769186D03*
%TD*%
%TO.P,SW9,2,2*%
%TO.N,Net-(D9-Pad2)*%
X86076860Y-70435731D03*
%TO.P,SW9,1,1*%
%TO.N,col3*%
X90057081Y-74119186D03*
%TD*%
%TO.P,SW7,2,2*%
%TO.N,Net-(D7-Pad2)*%
X52226860Y-58810731D03*
%TO.P,SW7,1,1*%
%TO.N,col1*%
X56207081Y-62494186D03*
%TD*%
%TO.P,SW12,2,2*%
%TO.N,Net-(D12-Pad2)*%
X46076860Y-74785731D03*
%TO.P,SW12,1,1*%
%TO.N,col1*%
X50057081Y-78469186D03*
%TD*%
%TO.P,SW13,2,2*%
%TO.N,Net-(D13-Pad2)*%
X64526860Y-76585731D03*
%TO.P,SW13,1,1*%
%TO.N,col2*%
X68507081Y-80269186D03*
%TD*%
D12*
%TO.P,RZ1,23,5V*%
%TO.N,VCC*%
X129993000Y-71665000D03*
%TO.P,RZ1,22,GND*%
%TO.N,GND*%
X129993000Y-74205000D03*
%TO.P,RZ1,21,3V3*%
%TO.N,unconnected-(RZ1-Pad21)*%
X129993000Y-76745000D03*
%TO.P,RZ1,20,GP29*%
%TO.N,row0*%
X129993000Y-79285000D03*
%TO.P,RZ1,19,GP28*%
%TO.N,col0*%
X129993000Y-81825000D03*
%TO.P,RZ1,18,GP27*%
%TO.N,col1*%
X129993000Y-84365000D03*
%TO.P,RZ1,17,GP26*%
%TO.N,col4*%
X129993000Y-86905000D03*
%TO.P,RZ1,16,GP15*%
%TO.N,col3*%
X129993000Y-89445000D03*
%TO.P,RZ1,15,GP14*%
%TO.N,col2*%
X129993000Y-91985000D03*
D13*
%TO.P,RZ1,14,GP13/UART0_RX*%
%TO.N,data-rx-l*%
X133199000Y-92883000D03*
%TO.P,RZ1,13,GP12/UART0_TX*%
%TO.N,data-tx-l*%
X135739000Y-92883000D03*
%TO.P,RZ1,12,GP11*%
%TO.N,row1*%
X138279000Y-92883000D03*
%TO.P,RZ1,11,GP10*%
%TO.N,row2*%
X140819000Y-92883000D03*
D14*
%TO.P,RZ1,10,GP9*%
%TO.N,row3*%
X143359000Y-92883000D03*
D12*
%TO.P,RZ1,9,GP8*%
%TO.N,unconnected-(RZ1-Pad9)*%
X146565000Y-91985000D03*
%TO.P,RZ1,8,GP7*%
%TO.N,unconnected-(RZ1-Pad8)*%
X146565000Y-89445000D03*
%TO.P,RZ1,7,GP6*%
%TO.N,unconnected-(RZ1-Pad7)*%
X146565000Y-86905000D03*
%TO.P,RZ1,6,GP5*%
%TO.N,unconnected-(RZ1-Pad6)*%
X146565000Y-84365000D03*
D15*
%TO.P,RZ1,5,GP4*%
%TO.N,unconnected-(RZ1-Pad5)*%
X146565000Y-81825000D03*
%TO.P,RZ1,4,GP3*%
%TO.N,unconnected-(RZ1-Pad4)*%
X146565000Y-79285000D03*
%TO.P,RZ1,3,GP2*%
%TO.N,unconnected-(RZ1-Pad3)*%
X146565000Y-76745000D03*
%TO.P,RZ1,2,GP1*%
%TO.N,unconnected-(RZ1-Pad2)*%
X146565000Y-74205000D03*
%TO.P,RZ1,1,GP0*%
%TO.N,unconnected-(RZ1-Pad1)*%
X146565000Y-71665000D03*
%TD*%
D11*
%TO.P,SW17,2,2*%
%TO.N,Net-(D17-Pad2)*%
X109352460Y-123201472D03*
%TO.P,SW17,1,1*%
%TO.N,col4*%
X111403070Y-128221930D03*
%TD*%
%TO.P,SW2,2,2*%
%TO.N,Net-(D2-Pad2)*%
X58401860Y-42860731D03*
%TO.P,SW2,1,1*%
%TO.N,col1*%
X62382081Y-46544186D03*
%TD*%
%TO.P,SW1,2,2*%
%TO.N,Net-(D1-Pad2)*%
X41475017Y-37035731D03*
%TO.P,SW1,1,1*%
%TO.N,col0*%
X45455238Y-40719186D03*
%TD*%
%TO.P,SW14,2,2*%
%TO.N,Net-(D14-Pad2)*%
X79901860Y-86435731D03*
%TO.P,SW14,1,1*%
%TO.N,col3*%
X83882081Y-90119186D03*
%TD*%
%TO.P,SW6,2,2*%
%TO.N,Net-(D6-Pad2)*%
X30701860Y-64960731D03*
%TO.P,SW6,1,1*%
%TO.N,col0*%
X34682081Y-68644186D03*
%TD*%
%TO.P,SW11,2,2*%
%TO.N,Net-(D11-Pad2)*%
X24601860Y-80960731D03*
%TO.P,SW11,1,1*%
%TO.N,col0*%
X28582081Y-84644186D03*
%TD*%
D16*
%TO.N,row1*%
X62287500Y-51787500D03*
X109825000Y-69900000D03*
X95000000Y-62275000D03*
X79650000Y-53500000D03*
X114606581Y-73600000D03*
X43550000Y-53125000D03*
%TO.N,row2*%
X55175000Y-66600000D03*
X34882581Y-74550000D03*
X89250000Y-78275000D03*
X119825000Y-88300000D03*
X105400000Y-84275000D03*
X73725000Y-68125000D03*
%TO.N,row3*%
X120250000Y-119450000D03*
X118625000Y-89275000D03*
X104850000Y-104175000D03*
%TO.N,data-tx-l*%
X126218885Y-96018885D03*
%TO.N,col2*%
X83275000Y-52575000D03*
X116650000Y-72999500D03*
%TO.N,col3*%
X117525000Y-72275000D03*
%TO.N,col1*%
X119825000Y-70875000D03*
%TO.N,col0*%
X119800000Y-69500000D03*
%TD*%
D17*
%TO.N,row1*%
X62287500Y-51787500D02*
X62600000Y-52100000D01*
X44887500Y-51787500D02*
X43550000Y-53125000D01*
X109825000Y-69425000D02*
X110325000Y-68925000D01*
X78700000Y-52150000D02*
X80050000Y-53500000D01*
X110938604Y-68925000D02*
X110325000Y-68925000D01*
X114606581Y-73600000D02*
X114606581Y-72592977D01*
X109825000Y-69900000D02*
X109825000Y-69425000D01*
X110325000Y-68925000D02*
X109350000Y-68925000D01*
X95975000Y-62275000D02*
X96294302Y-61955698D01*
X95000000Y-62275000D02*
X95975000Y-62275000D01*
X103250000Y-68925000D02*
X96525000Y-62200000D01*
X84275305Y-52600000D02*
X83375305Y-53500000D01*
X62600000Y-52100000D02*
X68852208Y-52100000D01*
X80050000Y-53500000D02*
X79650000Y-53500000D01*
X86938604Y-52600000D02*
X84275305Y-52600000D01*
X96294302Y-61955698D02*
X86938604Y-52600000D01*
X109450000Y-68925000D02*
X103250000Y-68925000D01*
X96538604Y-62200000D02*
X96294302Y-61955698D01*
X68852208Y-52100000D02*
X68902208Y-52150000D01*
X62287500Y-51787500D02*
X44887500Y-51787500D01*
X114606581Y-72592977D02*
X110938604Y-68925000D01*
X68902208Y-52150000D02*
X78700000Y-52150000D01*
X83375305Y-53500000D02*
X80050000Y-53500000D01*
%TO.N,row2*%
X41981834Y-66600000D02*
X55175000Y-66600000D01*
X55175000Y-66600000D02*
X72200000Y-66600000D01*
X34882581Y-73699253D02*
X41981834Y-66600000D01*
X119600000Y-88525000D02*
X119825000Y-88300000D01*
X79100000Y-68125000D02*
X89250000Y-78275000D01*
X34882581Y-74550000D02*
X34882581Y-73699253D01*
X105400000Y-84275000D02*
X105400000Y-84400000D01*
X89250000Y-78275000D02*
X99400000Y-78275000D01*
X105400000Y-84400000D02*
X109525000Y-88525000D01*
X109525000Y-88525000D02*
X119600000Y-88525000D01*
X72200000Y-66600000D02*
X73725000Y-68125000D01*
X73725000Y-68125000D02*
X79100000Y-68125000D01*
X99400000Y-78275000D02*
X105400000Y-84275000D01*
%TO.N,row3*%
X118625000Y-89275000D02*
X118600000Y-89300000D01*
X118600000Y-89300000D02*
X109450000Y-89300000D01*
X104850000Y-93900000D02*
X104850000Y-104175000D01*
X120250000Y-119450000D02*
X104975000Y-104175000D01*
X104975000Y-104175000D02*
X104850000Y-104175000D01*
X109450000Y-89300000D02*
X104850000Y-93900000D01*
%TO.N,data-rx-l*%
X124520013Y-95225000D02*
X132525000Y-95225000D01*
X109950000Y-97575000D02*
X109950000Y-100600000D01*
X119496039Y-100248974D02*
X124520013Y-95225000D01*
X115125000Y-105775000D02*
X118400000Y-105775000D01*
X132525000Y-95225000D02*
X133199000Y-94551000D01*
X109950000Y-100600000D02*
X115125000Y-105775000D01*
X118400000Y-105775000D02*
X119496039Y-104678961D01*
X133199000Y-94551000D02*
X133199000Y-92195000D01*
X119496039Y-104678961D02*
X119496039Y-100248974D01*
X112851934Y-95685026D02*
X111839974Y-95685026D01*
X111839974Y-95685026D02*
X109950000Y-97575000D01*
%TO.N,data-tx-l*%
X126218885Y-96018885D02*
X126562770Y-95675000D01*
X126562770Y-95675000D02*
X133950000Y-95675000D01*
X133950000Y-95675000D02*
X135739000Y-93886000D01*
X135739000Y-93886000D02*
X135739000Y-92195000D01*
%TO.N,GND*%
X128845000Y-74205000D02*
X130659000Y-74205000D01*
D18*
X127350000Y-91581841D02*
X127350000Y-75700000D01*
X116791985Y-102139856D02*
X127350000Y-91581841D01*
X115346961Y-102139856D02*
X116791985Y-102139856D01*
D17*
X115346961Y-102139856D02*
X115543401Y-101943416D01*
D18*
X127350000Y-75700000D02*
X128845000Y-74205000D01*
%TO.N,VCC*%
X126650000Y-91291891D02*
X126650000Y-74375000D01*
X111936400Y-100049862D02*
X111995301Y-100108763D01*
D17*
X129360000Y-71665000D02*
X130659000Y-71665000D01*
D18*
X114966958Y-100100000D02*
X117841891Y-100100000D01*
X126650000Y-74375000D02*
X129360000Y-71665000D01*
X114958195Y-100108763D02*
X114966958Y-100100000D01*
X117841891Y-100100000D02*
X126650000Y-91291891D01*
X111995301Y-100108763D02*
X114958195Y-100108763D01*
D17*
%TO.N,col2*%
X83700000Y-52150000D02*
X83275000Y-52575000D01*
X111125000Y-68475000D02*
X103450000Y-68475000D01*
X103450000Y-68475000D02*
X87125000Y-52150000D01*
X87125000Y-52150000D02*
X83700000Y-52150000D01*
X116650000Y-72999500D02*
X115649500Y-72999500D01*
X115649500Y-72999500D02*
X111125000Y-68475000D01*
%TO.N,col3*%
X115575000Y-72275000D02*
X111325000Y-68025000D01*
X96182081Y-60570685D02*
X96182081Y-58144186D01*
X117525000Y-72275000D02*
X115575000Y-72275000D01*
X103636396Y-68025000D02*
X96182081Y-60570685D01*
X111325000Y-68025000D02*
X103636396Y-68025000D01*
%TO.N,col1*%
X69088604Y-51700000D02*
X63932790Y-46544186D01*
X97507081Y-57595353D02*
X91611728Y-51700000D01*
X63932790Y-46544186D02*
X62382081Y-46544186D01*
X103822792Y-67575000D02*
X97507081Y-61259289D01*
X115475000Y-70875000D02*
X112175000Y-67575000D01*
X91611728Y-51700000D02*
X69088604Y-51700000D01*
X112175000Y-67575000D02*
X103822792Y-67575000D01*
X97507081Y-61259289D02*
X97507081Y-57595353D01*
X119825000Y-70875000D02*
X115475000Y-70875000D01*
%TO.N,col0*%
X97957081Y-61072893D02*
X97957081Y-57408957D01*
X69275000Y-51250000D02*
X62800000Y-44775000D01*
X115525000Y-70150000D02*
X112175000Y-66800000D01*
X112175000Y-66800000D02*
X103684188Y-66800000D01*
X103684188Y-66800000D02*
X97957081Y-61072893D01*
X119800000Y-69500000D02*
X119150000Y-70150000D01*
X49511052Y-44775000D02*
X45455238Y-40719186D01*
X91798124Y-51250000D02*
X69275000Y-51250000D01*
X62800000Y-44775000D02*
X49511052Y-44775000D01*
X119150000Y-70150000D02*
X115525000Y-70150000D01*
X97957081Y-57408957D02*
X91798124Y-51250000D01*
%TD*%
%TA.AperFunction,Conductor*%
%TO.N,GND*%
G36*
X111218989Y-100632941D02*
G01*
X111286586Y-100674364D01*
X111729449Y-100945751D01*
X111729455Y-100945754D01*
X111732170Y-100947418D01*
X111869309Y-101013418D01*
X111875494Y-101014971D01*
X111875495Y-101014972D01*
X111964784Y-101037400D01*
X112066442Y-101062935D01*
X112072820Y-101063213D01*
X112072824Y-101063214D01*
X112263127Y-101071522D01*
X112263131Y-101071522D01*
X112269505Y-101071800D01*
X112470204Y-101039654D01*
X112660338Y-100967807D01*
X112761695Y-100903732D01*
X112801197Y-100878760D01*
X112868525Y-100859263D01*
X113953742Y-100859263D01*
X114019577Y-100877830D01*
X115197264Y-101599518D01*
X115522972Y-101799112D01*
X115570603Y-101851760D01*
X115582210Y-101921801D01*
X115564570Y-101972380D01*
X115396682Y-102246350D01*
X115396681Y-102246351D01*
X115364976Y-102298088D01*
X114797603Y-103223958D01*
X114793456Y-103239291D01*
X114794012Y-103241044D01*
X114799686Y-103246481D01*
X114959686Y-103344528D01*
X114964358Y-103347126D01*
X115111264Y-103420850D01*
X115121137Y-103424800D01*
X115331386Y-103488879D01*
X115341776Y-103491106D01*
X115559809Y-103518842D01*
X115570438Y-103519288D01*
X115790025Y-103509893D01*
X115800572Y-103508542D01*
X116019574Y-103461390D01*
X116090378Y-103466606D01*
X116147123Y-103509274D01*
X116168613Y-103555153D01*
X116211096Y-103732106D01*
X116212381Y-103737458D01*
X116214576Y-103742506D01*
X116214577Y-103742509D01*
X116225001Y-103766482D01*
X116306609Y-103954166D01*
X116437035Y-104151218D01*
X116518367Y-104236924D01*
X116595910Y-104318638D01*
X116595914Y-104318642D01*
X116599698Y-104322629D01*
X116604120Y-104325901D01*
X116604121Y-104325902D01*
X116739862Y-104426346D01*
X116739874Y-104426354D01*
X116742074Y-104427982D01*
X117524739Y-104907598D01*
X117527190Y-104908820D01*
X117527208Y-104908830D01*
X117531036Y-104910738D01*
X117583075Y-104959033D01*
X117600743Y-105027796D01*
X117578430Y-105095195D01*
X117523220Y-105139832D01*
X117474816Y-105149500D01*
X115436281Y-105149500D01*
X115368160Y-105129498D01*
X115347186Y-105112595D01*
X112078367Y-101843776D01*
X113581567Y-101843776D01*
X113582420Y-101854373D01*
X113618508Y-102071183D01*
X113621133Y-102081482D01*
X113693233Y-102289108D01*
X113697558Y-102298823D01*
X113803611Y-102491334D01*
X113809512Y-102500182D01*
X113946480Y-102672066D01*
X113953795Y-102679800D01*
X114118645Y-102826936D01*
X114125181Y-102832037D01*
X114140521Y-102842463D01*
X114142998Y-102844062D01*
X114339550Y-102964509D01*
X114354882Y-102968656D01*
X114356637Y-102968099D01*
X114362073Y-102962425D01*
X114922370Y-102048105D01*
X114926517Y-102032772D01*
X114925961Y-102031019D01*
X114920286Y-102025582D01*
X113685112Y-101268666D01*
X113671500Y-101264984D01*
X113664655Y-101273235D01*
X113624164Y-101386633D01*
X113621449Y-101396909D01*
X113583470Y-101613398D01*
X113582526Y-101623983D01*
X113581567Y-101843776D01*
X112078367Y-101843776D01*
X111064060Y-100829469D01*
X111030034Y-100767157D01*
X111035099Y-100696342D01*
X111077646Y-100639506D01*
X111144166Y-100614695D01*
X111218989Y-100632941D01*
G37*
%TD.AperFunction*%
%TA.AperFunction,Conductor*%
G36*
X130189121Y-73971002D02*
G01*
X130235614Y-74024658D01*
X130247000Y-74077000D01*
X130247000Y-74333000D01*
X130226998Y-74401121D01*
X130173342Y-74447614D01*
X130121000Y-74459000D01*
X128137115Y-74459000D01*
X128121876Y-74463475D01*
X128120671Y-74464865D01*
X128119000Y-74472548D01*
X128119000Y-74666139D01*
X128119193Y-74671065D01*
X128124786Y-74742130D01*
X128126733Y-74753457D01*
X128172936Y-74925890D01*
X128177637Y-74938136D01*
X128258304Y-75096453D01*
X128265454Y-75107464D01*
X128377274Y-75245549D01*
X128386551Y-75254826D01*
X128524637Y-75366647D01*
X128535693Y-75373827D01*
X128581928Y-75427704D01*
X128591695Y-75498026D01*
X128561893Y-75562465D01*
X128537283Y-75583788D01*
X128533874Y-75585525D01*
X128386758Y-75704658D01*
X128382607Y-75709784D01*
X128273430Y-75844606D01*
X128267625Y-75851774D01*
X128181684Y-76020444D01*
X128132688Y-76203297D01*
X128132235Y-76209047D01*
X128132235Y-76209050D01*
X128128346Y-76258472D01*
X128126500Y-76281925D01*
X128126501Y-77208074D01*
X128127306Y-77218305D01*
X128132231Y-77280889D01*
X128132688Y-77286703D01*
X128154479Y-77368028D01*
X128171558Y-77431764D01*
X128181684Y-77469556D01*
X128267625Y-77638226D01*
X128271776Y-77643352D01*
X128271778Y-77643355D01*
X128341278Y-77729179D01*
X128386758Y-77785342D01*
X128533874Y-77904475D01*
X128539757Y-77907473D01*
X128542614Y-77909328D01*
X128588850Y-77963204D01*
X128598620Y-78033525D01*
X128568820Y-78097965D01*
X128542614Y-78120672D01*
X128539757Y-78122527D01*
X128533874Y-78125525D01*
X128386758Y-78244658D01*
X128382607Y-78249784D01*
X128316599Y-78331297D01*
X128267625Y-78391774D01*
X128181684Y-78560444D01*
X128132688Y-78743297D01*
X128132235Y-78749047D01*
X128132235Y-78749050D01*
X128127028Y-78815221D01*
X128126500Y-78821925D01*
X128126501Y-79748074D01*
X128128693Y-79775927D01*
X128132231Y-79820889D01*
X128132688Y-79826703D01*
X128141496Y-79859573D01*
X128179711Y-80002191D01*
X128181684Y-80009556D01*
X128267625Y-80178226D01*
X128271776Y-80183352D01*
X128271778Y-80183355D01*
X128360096Y-80292418D01*
X128386758Y-80325342D01*
X128533874Y-80444475D01*
X128539757Y-80447473D01*
X128542614Y-80449328D01*
X128588850Y-80503204D01*
X128598620Y-80573525D01*
X128568820Y-80637965D01*
X128542614Y-80660672D01*
X128539757Y-80662527D01*
X128533874Y-80665525D01*
X128386758Y-80784658D01*
X128382607Y-80789784D01*
X128273965Y-80923945D01*
X128267625Y-80931774D01*
X128181684Y-81100444D01*
X128179976Y-81106819D01*
X128179975Y-81106821D01*
X128178821Y-81111129D01*
X128132688Y-81283297D01*
X128132235Y-81289047D01*
X128132235Y-81289050D01*
X128126782Y-81358347D01*
X128126500Y-81361925D01*
X128126501Y-82288074D01*
X128126695Y-82290534D01*
X128132231Y-82360889D01*
X128132688Y-82366703D01*
X128143376Y-82406590D01*
X128166987Y-82494705D01*
X128181684Y-82549556D01*
X128267625Y-82718226D01*
X128271776Y-82723352D01*
X128271778Y-82723355D01*
X128302124Y-82760829D01*
X128386758Y-82865342D01*
X128533874Y-82984475D01*
X128539757Y-82987473D01*
X128542614Y-82989328D01*
X128588850Y-83043204D01*
X128598620Y-83113525D01*
X128568820Y-83177965D01*
X128542614Y-83200672D01*
X128539757Y-83202527D01*
X128533874Y-83205525D01*
X128386758Y-83324658D01*
X128382607Y-83329784D01*
X128291093Y-83442794D01*
X128267625Y-83471774D01*
X128181684Y-83640444D01*
X128179976Y-83646819D01*
X128179975Y-83646821D01*
X128166622Y-83696654D01*
X128132688Y-83823297D01*
X128132235Y-83829047D01*
X128132235Y-83829050D01*
X128126694Y-83899466D01*
X128126500Y-83901925D01*
X128126501Y-84828074D01*
X128132688Y-84906703D01*
X128150368Y-84972685D01*
X128175078Y-85064901D01*
X128181684Y-85089556D01*
X128267625Y-85258226D01*
X128271776Y-85263352D01*
X128271778Y-85263355D01*
X128312427Y-85313552D01*
X128386758Y-85405342D01*
X128533874Y-85524475D01*
X128539757Y-85527473D01*
X128542614Y-85529328D01*
X128588850Y-85583204D01*
X128598620Y-85653525D01*
X128568820Y-85717965D01*
X128542614Y-85740672D01*
X128539757Y-85742527D01*
X128533874Y-85745525D01*
X128386758Y-85864658D01*
X128382607Y-85869784D01*
X128277632Y-85999417D01*
X128267625Y-86011774D01*
X128181684Y-86180444D01*
X128179976Y-86186819D01*
X128179975Y-86186821D01*
X128177791Y-86194971D01*
X128132688Y-86363297D01*
X128132235Y-86369047D01*
X128132235Y-86369050D01*
X128126694Y-86439466D01*
X128126500Y-86441925D01*
X128126501Y-87368074D01*
X128126695Y-87370534D01*
X128132071Y-87438856D01*
X128132688Y-87446703D01*
X128147284Y-87501174D01*
X128167200Y-87575500D01*
X128181684Y-87629556D01*
X128267625Y-87798226D01*
X128271776Y-87803352D01*
X128271778Y-87803355D01*
X128355698Y-87906986D01*
X128386758Y-87945342D01*
X128533874Y-88064475D01*
X128539757Y-88067473D01*
X128542614Y-88069328D01*
X128588850Y-88123204D01*
X128598620Y-88193525D01*
X128568820Y-88257965D01*
X128542614Y-88280672D01*
X128539757Y-88282527D01*
X128533874Y-88285525D01*
X128386758Y-88404658D01*
X128382607Y-88409784D01*
X128322925Y-88483485D01*
X128267625Y-88551774D01*
X128181684Y-88720444D01*
X128132688Y-88903297D01*
X128132235Y-88909047D01*
X128132235Y-88909050D01*
X128126694Y-88979466D01*
X128126500Y-88981925D01*
X128126501Y-89908074D01*
X128126695Y-89910534D01*
X128131864Y-89976228D01*
X128132688Y-89986703D01*
X128147718Y-90042794D01*
X128172011Y-90133455D01*
X128181684Y-90169556D01*
X128267625Y-90338226D01*
X128271776Y-90343352D01*
X128271778Y-90343355D01*
X128360264Y-90452625D01*
X128386758Y-90485342D01*
X128533874Y-90604475D01*
X128539757Y-90607473D01*
X128542614Y-90609328D01*
X128588850Y-90663204D01*
X128598620Y-90733525D01*
X128568820Y-90797965D01*
X128542614Y-90820672D01*
X128539757Y-90822527D01*
X128533874Y-90825525D01*
X128386758Y-90944658D01*
X128382607Y-90949784D01*
X128279317Y-91077336D01*
X128267625Y-91091774D01*
X128181684Y-91260444D01*
X128179976Y-91266819D01*
X128179975Y-91266821D01*
X128171830Y-91297220D01*
X128132688Y-91443297D01*
X128132235Y-91449047D01*
X128132235Y-91449050D01*
X128126694Y-91519466D01*
X128126500Y-91521925D01*
X128126501Y-92448074D01*
X128126695Y-92450534D01*
X128132226Y-92520827D01*
X128132688Y-92526703D01*
X128181684Y-92709556D01*
X128267625Y-92878226D01*
X128271776Y-92883352D01*
X128271778Y-92883355D01*
X128311420Y-92932308D01*
X128386758Y-93025342D01*
X128391884Y-93029493D01*
X128528745Y-93140322D01*
X128528748Y-93140324D01*
X128533874Y-93144475D01*
X128702544Y-93230416D01*
X128708919Y-93232124D01*
X128708921Y-93232125D01*
X128758001Y-93245276D01*
X128885397Y-93279412D01*
X128891147Y-93279865D01*
X128891150Y-93279865D01*
X128961568Y-93285407D01*
X128961577Y-93285407D01*
X128964025Y-93285600D01*
X129992583Y-93285600D01*
X131021974Y-93285599D01*
X131057923Y-93282770D01*
X131094852Y-93279865D01*
X131094857Y-93279864D01*
X131100603Y-93279412D01*
X131186494Y-93256397D01*
X131277079Y-93232125D01*
X131277081Y-93232124D01*
X131283456Y-93230416D01*
X131452126Y-93144475D01*
X131457252Y-93140324D01*
X131457255Y-93140322D01*
X131594116Y-93029493D01*
X131599242Y-93025342D01*
X131640845Y-92973967D01*
X131687181Y-92916748D01*
X131745596Y-92876396D01*
X131816553Y-92874032D01*
X131877524Y-92910405D01*
X131909152Y-92973967D01*
X131911101Y-92996038D01*
X131911101Y-93939888D01*
X131917244Y-94017954D01*
X131918738Y-94023529D01*
X131961223Y-94182084D01*
X131965894Y-94199518D01*
X132051229Y-94366999D01*
X132055384Y-94372130D01*
X132055386Y-94372133D01*
X132073260Y-94394206D01*
X132100586Y-94459733D01*
X132088146Y-94529631D01*
X132039892Y-94581708D01*
X131975340Y-94599500D01*
X124707948Y-94599500D01*
X124639827Y-94579498D01*
X124593334Y-94525842D01*
X124583230Y-94455568D01*
X124612724Y-94390988D01*
X124618853Y-94384405D01*
X127133689Y-91869569D01*
X127148102Y-91857182D01*
X127159425Y-91848850D01*
X127159429Y-91848846D01*
X127165324Y-91844508D01*
X127199151Y-91804691D01*
X127206071Y-91797187D01*
X127211670Y-91791588D01*
X127229114Y-91769540D01*
X127231883Y-91766164D01*
X127273892Y-91716716D01*
X127273894Y-91716713D01*
X127278632Y-91711136D01*
X127281960Y-91704617D01*
X127285235Y-91699707D01*
X127288336Y-91694687D01*
X127292881Y-91688942D01*
X127323447Y-91623542D01*
X127325375Y-91619596D01*
X127328111Y-91614238D01*
X127358219Y-91555275D01*
X127359958Y-91548166D01*
X127362017Y-91542631D01*
X127363883Y-91537023D01*
X127366979Y-91530398D01*
X127368742Y-91521925D01*
X127381683Y-91459707D01*
X127382654Y-91455418D01*
X127389026Y-91429376D01*
X127399815Y-91385285D01*
X127400500Y-91374243D01*
X127400531Y-91374245D01*
X127400780Y-91370121D01*
X127401128Y-91366219D01*
X127402617Y-91359061D01*
X127400546Y-91282513D01*
X127400500Y-91279105D01*
X127400500Y-74738057D01*
X127420502Y-74669936D01*
X127437405Y-74648962D01*
X128098462Y-73987905D01*
X128160774Y-73953879D01*
X128187557Y-73951000D01*
X130121000Y-73951000D01*
X130189121Y-73971002D01*
G37*
%TD.AperFunction*%
%TD*%
D19*
X62287500Y-51787500D03*
X109825000Y-69900000D03*
X95000000Y-62275000D03*
X79650000Y-53500000D03*
X114606581Y-73600000D03*
X43550000Y-53125000D03*
X55175000Y-66600000D03*
X34882581Y-74550000D03*
X89250000Y-78275000D03*
X119825000Y-88300000D03*
X105400000Y-84275000D03*
X73725000Y-68125000D03*
X120250000Y-119450000D03*
X118625000Y-89275000D03*
X104850000Y-104175000D03*
X126218885Y-96018885D03*
X83275000Y-52575000D03*
X116650000Y-72999500D03*
X117525000Y-72275000D03*
X119825000Y-70875000D03*
X119800000Y-69500000D03*
X114502559Y-99008762D03*
X120471040Y-102666252D03*
D20*
X112786093Y-95493973D03*
X117839040Y-103516299D03*
X115281120Y-101948803D03*
X111870559Y-99858809D03*
D19*
X92201860Y-54460731D03*
X96182081Y-58144186D03*
X98200000Y-52600000D03*
X103368309Y-54481111D03*
X93031691Y-50718889D03*
X96501860Y-93035731D03*
X100482081Y-96719186D03*
X107668309Y-93056111D03*
X97331691Y-89293889D03*
X102500000Y-91175000D03*
X76851860Y-44660731D03*
X80832081Y-48344186D03*
X88018309Y-44681111D03*
X77681691Y-40918889D03*
X82850000Y-42800000D03*
X95162697Y-111394263D03*
X98944686Y-115280979D03*
X101250000Y-109850000D03*
X96187223Y-107700979D03*
X106312777Y-111999021D03*
X70701860Y-60660731D03*
X74682081Y-64344186D03*
X81868309Y-60681111D03*
X76700000Y-58800000D03*
X71531691Y-56918889D03*
X102676860Y-77035731D03*
X106657081Y-80719186D03*
X103506691Y-73293889D03*
X108675000Y-75175000D03*
X113843309Y-77056111D03*
X108826860Y-61085731D03*
X112807081Y-64769186D03*
X109656691Y-57343889D03*
X114825000Y-59225000D03*
X119993309Y-61106111D03*
X86076860Y-70435731D03*
X90057081Y-74119186D03*
X86906691Y-66693889D03*
X97243309Y-70456111D03*
X92075000Y-68575000D03*
X52226860Y-58810731D03*
X56207081Y-62494186D03*
X58225000Y-56950000D03*
X63393309Y-58831111D03*
X53056691Y-55068889D03*
X46076860Y-74785731D03*
X50057081Y-78469186D03*
X46906691Y-71043889D03*
X57243309Y-74806111D03*
X52075000Y-72925000D03*
X64526860Y-76585731D03*
X68507081Y-80269186D03*
X75693309Y-76606111D03*
X65356691Y-72843889D03*
X70525000Y-74725000D03*
X130659000Y-71665000D03*
X130659000Y-74205000D03*
X130659000Y-76745000D03*
X130659000Y-79285000D03*
X130659000Y-81825000D03*
X130659000Y-84365000D03*
X130659000Y-86905000D03*
X130659000Y-89445000D03*
X130659000Y-91985000D03*
X133199000Y-92195000D03*
X135739000Y-92195000D03*
X138279000Y-92195000D03*
X140819000Y-92195000D03*
X143359000Y-92195000D03*
X145899000Y-91985000D03*
X145899000Y-89445000D03*
X145899000Y-86905000D03*
X145899000Y-84365000D03*
X145899000Y-81825000D03*
X145899000Y-79285000D03*
X145899000Y-76745000D03*
X145899000Y-74205000D03*
X145899000Y-71665000D03*
X109352460Y-123201472D03*
X111403070Y-128221930D03*
X119464087Y-127939087D03*
X115575000Y-124050000D03*
X111685913Y-120160913D03*
X58401860Y-42860731D03*
X62382081Y-46544186D03*
X69568309Y-42881111D03*
X59231691Y-39118889D03*
X64400000Y-41000000D03*
X41475017Y-37035731D03*
X45455238Y-40719186D03*
X47473157Y-35175000D03*
X42304848Y-33293889D03*
X52641466Y-37056111D03*
X79901860Y-86435731D03*
X83882081Y-90119186D03*
X80731691Y-82693889D03*
X85900000Y-84575000D03*
X91068309Y-86456111D03*
X30701860Y-64960731D03*
X34682081Y-68644186D03*
X41868309Y-64981111D03*
X36700000Y-63100000D03*
X31531691Y-61218889D03*
X24601860Y-80960731D03*
X28582081Y-84644186D03*
X30600000Y-79100000D03*
X35768309Y-80981111D03*
X25431691Y-77218889D03*
M02*
