%TF.GenerationSoftware,KiCad,Pcbnew,(6.0.11)*%
%TF.CreationDate,2024-04-13T23:12:42+09:00*%
%TF.ProjectId,haqua34_left,68617175-6133-4345-9f6c-6566742e6b69,rev?*%
%TF.SameCoordinates,Original*%
%TF.FileFunction,Legend,Top*%
%TF.FilePolarity,Positive*%
%FSLAX46Y46*%
G04 Gerber Fmt 4.6, Leading zero omitted, Abs format (unit mm)*
G04 Created by KiCad (PCBNEW (6.0.11)) date 2024-04-13 23:12:42*
%MOMM*%
%LPD*%
G01*
G04 APERTURE LIST*
G04 Aperture macros list*
%AMHorizOval*
0 Thick line with rounded ends*
0 $1 width*
0 $2 $3 position (X,Y) of the first rounded end (center of the circle)*
0 $4 $5 position (X,Y) of the second rounded end (center of the circle)*
0 Add line between two ends*
20,1,$1,$2,$3,$4,$5,0*
0 Add two circle primitives to create the rounded ends*
1,1,$1,$2,$3*
1,1,$1,$4,$5*%
G04 Aperture macros list end*
%ADD10C,0.200000*%
%ADD11C,0.150000*%
%ADD12C,0.350000*%
%ADD13HorizOval,1.000000X-0.213160X0.130625X0.213160X-0.130625X0*%
G04 APERTURE END LIST*
D10*
X132333333Y-95747380D02*
X132333333Y-94747380D01*
X132761904Y-95747380D02*
X132761904Y-95223571D01*
X132714285Y-95128333D01*
X132619047Y-95080714D01*
X132476190Y-95080714D01*
X132380952Y-95128333D01*
X132333333Y-95175952D01*
X133666666Y-95747380D02*
X133666666Y-95223571D01*
X133619047Y-95128333D01*
X133523809Y-95080714D01*
X133333333Y-95080714D01*
X133238095Y-95128333D01*
X133666666Y-95699761D02*
X133571428Y-95747380D01*
X133333333Y-95747380D01*
X133238095Y-95699761D01*
X133190476Y-95604523D01*
X133190476Y-95509285D01*
X133238095Y-95414047D01*
X133333333Y-95366428D01*
X133571428Y-95366428D01*
X133666666Y-95318809D01*
X134571428Y-95080714D02*
X134571428Y-96080714D01*
X134571428Y-95699761D02*
X134476190Y-95747380D01*
X134285714Y-95747380D01*
X134190476Y-95699761D01*
X134142857Y-95652142D01*
X134095238Y-95556904D01*
X134095238Y-95271190D01*
X134142857Y-95175952D01*
X134190476Y-95128333D01*
X134285714Y-95080714D01*
X134476190Y-95080714D01*
X134571428Y-95128333D01*
X135476190Y-95080714D02*
X135476190Y-95747380D01*
X135047619Y-95080714D02*
X135047619Y-95604523D01*
X135095238Y-95699761D01*
X135190476Y-95747380D01*
X135333333Y-95747380D01*
X135428571Y-95699761D01*
X135476190Y-95652142D01*
X136380952Y-95747380D02*
X136380952Y-95223571D01*
X136333333Y-95128333D01*
X136238095Y-95080714D01*
X136047619Y-95080714D01*
X135952380Y-95128333D01*
X136380952Y-95699761D02*
X136285714Y-95747380D01*
X136047619Y-95747380D01*
X135952380Y-95699761D01*
X135904761Y-95604523D01*
X135904761Y-95509285D01*
X135952380Y-95414047D01*
X136047619Y-95366428D01*
X136285714Y-95366428D01*
X136380952Y-95318809D01*
X136761904Y-94747380D02*
X137380952Y-94747380D01*
X137047619Y-95128333D01*
X137190476Y-95128333D01*
X137285714Y-95175952D01*
X137333333Y-95223571D01*
X137380952Y-95318809D01*
X137380952Y-95556904D01*
X137333333Y-95652142D01*
X137285714Y-95699761D01*
X137190476Y-95747380D01*
X136904761Y-95747380D01*
X136809523Y-95699761D01*
X136761904Y-95652142D01*
X138238095Y-95080714D02*
X138238095Y-95747380D01*
X138000000Y-94699761D02*
X137761904Y-95414047D01*
X138380952Y-95414047D01*
X139523809Y-95747380D02*
X139523809Y-95080714D01*
X139523809Y-95271190D02*
X139571428Y-95175952D01*
X139619047Y-95128333D01*
X139714285Y-95080714D01*
X139809523Y-95080714D01*
X140523809Y-95699761D02*
X140428571Y-95747380D01*
X140238095Y-95747380D01*
X140142857Y-95699761D01*
X140095238Y-95604523D01*
X140095238Y-95223571D01*
X140142857Y-95128333D01*
X140238095Y-95080714D01*
X140428571Y-95080714D01*
X140523809Y-95128333D01*
X140571428Y-95223571D01*
X140571428Y-95318809D01*
X140095238Y-95414047D01*
X140904761Y-95080714D02*
X141142857Y-95747380D01*
X141380952Y-95080714D01*
X141952380Y-94747380D02*
X142047619Y-94747380D01*
X142142857Y-94795000D01*
X142190476Y-94842619D01*
X142238095Y-94937857D01*
X142285714Y-95128333D01*
X142285714Y-95366428D01*
X142238095Y-95556904D01*
X142190476Y-95652142D01*
X142142857Y-95699761D01*
X142047619Y-95747380D01*
X141952380Y-95747380D01*
X141857142Y-95699761D01*
X141809523Y-95652142D01*
X141761904Y-95556904D01*
X141714285Y-95366428D01*
X141714285Y-95128333D01*
X141761904Y-94937857D01*
X141809523Y-94842619D01*
X141857142Y-94795000D01*
X141952380Y-94747380D01*
X142714285Y-95652142D02*
X142761904Y-95699761D01*
X142714285Y-95747380D01*
X142666666Y-95699761D01*
X142714285Y-95652142D01*
X142714285Y-95747380D01*
X143714285Y-95747380D02*
X143142857Y-95747380D01*
X143428571Y-95747380D02*
X143428571Y-94747380D01*
X143333333Y-94890238D01*
X143238095Y-94985476D01*
X143142857Y-95033095D01*
X129571428Y-97357380D02*
X129571428Y-96357380D01*
X129571428Y-97309761D02*
X129476190Y-97357380D01*
X129285714Y-97357380D01*
X129190476Y-97309761D01*
X129142857Y-97262142D01*
X129095238Y-97166904D01*
X129095238Y-96881190D01*
X129142857Y-96785952D01*
X129190476Y-96738333D01*
X129285714Y-96690714D01*
X129476190Y-96690714D01*
X129571428Y-96738333D01*
X130428571Y-97309761D02*
X130333333Y-97357380D01*
X130142857Y-97357380D01*
X130047619Y-97309761D01*
X130000000Y-97214523D01*
X130000000Y-96833571D01*
X130047619Y-96738333D01*
X130142857Y-96690714D01*
X130333333Y-96690714D01*
X130428571Y-96738333D01*
X130476190Y-96833571D01*
X130476190Y-96928809D01*
X130000000Y-97024047D01*
X130857142Y-97309761D02*
X130952380Y-97357380D01*
X131142857Y-97357380D01*
X131238095Y-97309761D01*
X131285714Y-97214523D01*
X131285714Y-97166904D01*
X131238095Y-97071666D01*
X131142857Y-97024047D01*
X131000000Y-97024047D01*
X130904761Y-96976428D01*
X130857142Y-96881190D01*
X130857142Y-96833571D01*
X130904761Y-96738333D01*
X131000000Y-96690714D01*
X131142857Y-96690714D01*
X131238095Y-96738333D01*
X131714285Y-97357380D02*
X131714285Y-96690714D01*
X131714285Y-96357380D02*
X131666666Y-96405000D01*
X131714285Y-96452619D01*
X131761904Y-96405000D01*
X131714285Y-96357380D01*
X131714285Y-96452619D01*
X132619047Y-96690714D02*
X132619047Y-97500238D01*
X132571428Y-97595476D01*
X132523809Y-97643095D01*
X132428571Y-97690714D01*
X132285714Y-97690714D01*
X132190476Y-97643095D01*
X132619047Y-97309761D02*
X132523809Y-97357380D01*
X132333333Y-97357380D01*
X132238095Y-97309761D01*
X132190476Y-97262142D01*
X132142857Y-97166904D01*
X132142857Y-96881190D01*
X132190476Y-96785952D01*
X132238095Y-96738333D01*
X132333333Y-96690714D01*
X132523809Y-96690714D01*
X132619047Y-96738333D01*
X133095238Y-96690714D02*
X133095238Y-97357380D01*
X133095238Y-96785952D02*
X133142857Y-96738333D01*
X133238095Y-96690714D01*
X133380952Y-96690714D01*
X133476190Y-96738333D01*
X133523809Y-96833571D01*
X133523809Y-97357380D01*
X134380952Y-97309761D02*
X134285714Y-97357380D01*
X134095238Y-97357380D01*
X134000000Y-97309761D01*
X133952380Y-97214523D01*
X133952380Y-96833571D01*
X134000000Y-96738333D01*
X134095238Y-96690714D01*
X134285714Y-96690714D01*
X134380952Y-96738333D01*
X134428571Y-96833571D01*
X134428571Y-96928809D01*
X133952380Y-97024047D01*
X135285714Y-97357380D02*
X135285714Y-96357380D01*
X135285714Y-97309761D02*
X135190476Y-97357380D01*
X135000000Y-97357380D01*
X134904761Y-97309761D01*
X134857142Y-97262142D01*
X134809523Y-97166904D01*
X134809523Y-96881190D01*
X134857142Y-96785952D01*
X134904761Y-96738333D01*
X135000000Y-96690714D01*
X135190476Y-96690714D01*
X135285714Y-96738333D01*
X136523809Y-97357380D02*
X136523809Y-96357380D01*
X136523809Y-96738333D02*
X136619047Y-96690714D01*
X136809523Y-96690714D01*
X136904761Y-96738333D01*
X136952380Y-96785952D01*
X137000000Y-96881190D01*
X137000000Y-97166904D01*
X136952380Y-97262142D01*
X136904761Y-97309761D01*
X136809523Y-97357380D01*
X136619047Y-97357380D01*
X136523809Y-97309761D01*
X137333333Y-96690714D02*
X137571428Y-97357380D01*
X137809523Y-96690714D02*
X137571428Y-97357380D01*
X137476190Y-97595476D01*
X137428571Y-97643095D01*
X137333333Y-97690714D01*
X138809523Y-96690714D02*
X139190476Y-96690714D01*
X138952380Y-96357380D02*
X138952380Y-97214523D01*
X139000000Y-97309761D01*
X139095238Y-97357380D01*
X139190476Y-97357380D01*
X139952380Y-97357380D02*
X139952380Y-96833571D01*
X139904761Y-96738333D01*
X139809523Y-96690714D01*
X139619047Y-96690714D01*
X139523809Y-96738333D01*
X139952380Y-97309761D02*
X139857142Y-97357380D01*
X139619047Y-97357380D01*
X139523809Y-97309761D01*
X139476190Y-97214523D01*
X139476190Y-97119285D01*
X139523809Y-97024047D01*
X139619047Y-96976428D01*
X139857142Y-96976428D01*
X139952380Y-96928809D01*
X140428571Y-97357380D02*
X140428571Y-96690714D01*
X140428571Y-96785952D02*
X140476190Y-96738333D01*
X140571428Y-96690714D01*
X140714285Y-96690714D01*
X140809523Y-96738333D01*
X140857142Y-96833571D01*
X140857142Y-97357380D01*
X140857142Y-96833571D02*
X140904761Y-96738333D01*
X141000000Y-96690714D01*
X141142857Y-96690714D01*
X141238095Y-96738333D01*
X141285714Y-96833571D01*
X141285714Y-97357380D01*
X142190476Y-97357380D02*
X142190476Y-96833571D01*
X142142857Y-96738333D01*
X142047619Y-96690714D01*
X141857142Y-96690714D01*
X141761904Y-96738333D01*
X142190476Y-97309761D02*
X142095238Y-97357380D01*
X141857142Y-97357380D01*
X141761904Y-97309761D01*
X141714285Y-97214523D01*
X141714285Y-97119285D01*
X141761904Y-97024047D01*
X141857142Y-96976428D01*
X142095238Y-96976428D01*
X142190476Y-96928809D01*
X143095238Y-96690714D02*
X143095238Y-97500238D01*
X143047619Y-97595476D01*
X143000000Y-97643095D01*
X142904761Y-97690714D01*
X142761904Y-97690714D01*
X142666666Y-97643095D01*
X143095238Y-97309761D02*
X143000000Y-97357380D01*
X142809523Y-97357380D01*
X142714285Y-97309761D01*
X142666666Y-97262142D01*
X142619047Y-97166904D01*
X142619047Y-96881190D01*
X142666666Y-96785952D01*
X142714285Y-96738333D01*
X142809523Y-96690714D01*
X143000000Y-96690714D01*
X143095238Y-96738333D01*
X143714285Y-97357380D02*
X143619047Y-97309761D01*
X143571428Y-97262142D01*
X143523809Y-97166904D01*
X143523809Y-96881190D01*
X143571428Y-96785952D01*
X143619047Y-96738333D01*
X143714285Y-96690714D01*
X143857142Y-96690714D01*
X143952380Y-96738333D01*
X144000000Y-96785952D01*
X144047619Y-96881190D01*
X144047619Y-97166904D01*
X144000000Y-97262142D01*
X143952380Y-97309761D01*
X143857142Y-97357380D01*
X143714285Y-97357380D01*
X144380952Y-96357380D02*
X145000000Y-96357380D01*
X144666666Y-96738333D01*
X144809523Y-96738333D01*
X144904761Y-96785952D01*
X144952380Y-96833571D01*
X145000000Y-96928809D01*
X145000000Y-97166904D01*
X144952380Y-97262142D01*
X144904761Y-97309761D01*
X144809523Y-97357380D01*
X144523809Y-97357380D01*
X144428571Y-97309761D01*
X144380952Y-97262142D01*
X145380952Y-96452619D02*
X145428571Y-96405000D01*
X145523809Y-96357380D01*
X145761904Y-96357380D01*
X145857142Y-96405000D01*
X145904761Y-96452619D01*
X145952380Y-96547857D01*
X145952380Y-96643095D01*
X145904761Y-96785952D01*
X145333333Y-97357380D01*
X145952380Y-97357380D01*
X146809523Y-96690714D02*
X146809523Y-97357380D01*
X146571428Y-96309761D02*
X146333333Y-97024047D01*
X146952380Y-97024047D01*
D11*
%TO.C,RZ1*%
X133898047Y-81527380D02*
X133564714Y-81051190D01*
X133326619Y-81527380D02*
X133326619Y-80527380D01*
X133707571Y-80527380D01*
X133802809Y-80575000D01*
X133850428Y-80622619D01*
X133898047Y-80717857D01*
X133898047Y-80860714D01*
X133850428Y-80955952D01*
X133802809Y-81003571D01*
X133707571Y-81051190D01*
X133326619Y-81051190D01*
X134326619Y-81527380D02*
X134326619Y-80527380D01*
X134707571Y-80527380D01*
X134802809Y-80575000D01*
X134850428Y-80622619D01*
X134898047Y-80717857D01*
X134898047Y-80860714D01*
X134850428Y-80955952D01*
X134802809Y-81003571D01*
X134707571Y-81051190D01*
X134326619Y-81051190D01*
X135279000Y-80622619D02*
X135326619Y-80575000D01*
X135421857Y-80527380D01*
X135659952Y-80527380D01*
X135755190Y-80575000D01*
X135802809Y-80622619D01*
X135850428Y-80717857D01*
X135850428Y-80813095D01*
X135802809Y-80955952D01*
X135231380Y-81527380D01*
X135850428Y-81527380D01*
X136469476Y-80527380D02*
X136564714Y-80527380D01*
X136659952Y-80575000D01*
X136707571Y-80622619D01*
X136755190Y-80717857D01*
X136802809Y-80908333D01*
X136802809Y-81146428D01*
X136755190Y-81336904D01*
X136707571Y-81432142D01*
X136659952Y-81479761D01*
X136564714Y-81527380D01*
X136469476Y-81527380D01*
X136374238Y-81479761D01*
X136326619Y-81432142D01*
X136279000Y-81336904D01*
X136231380Y-81146428D01*
X136231380Y-80908333D01*
X136279000Y-80717857D01*
X136326619Y-80622619D01*
X136374238Y-80575000D01*
X136469476Y-80527380D01*
X137659952Y-80860714D02*
X137659952Y-81527380D01*
X137421857Y-80479761D02*
X137183761Y-81194047D01*
X137802809Y-81194047D01*
X138374238Y-80527380D02*
X138469476Y-80527380D01*
X138564714Y-80575000D01*
X138612333Y-80622619D01*
X138659952Y-80717857D01*
X138707571Y-80908333D01*
X138707571Y-81146428D01*
X138659952Y-81336904D01*
X138612333Y-81432142D01*
X138564714Y-81479761D01*
X138469476Y-81527380D01*
X138374238Y-81527380D01*
X138279000Y-81479761D01*
X138231380Y-81432142D01*
X138183761Y-81336904D01*
X138136142Y-81146428D01*
X138136142Y-80908333D01*
X138183761Y-80717857D01*
X138231380Y-80622619D01*
X138279000Y-80575000D01*
X138374238Y-80527380D01*
X139136142Y-81146428D02*
X139898047Y-81146428D01*
X140279000Y-80527380D02*
X140945666Y-80527380D01*
X140279000Y-81527380D01*
X140945666Y-81527380D01*
X141707571Y-81479761D02*
X141612333Y-81527380D01*
X141421857Y-81527380D01*
X141326619Y-81479761D01*
X141279000Y-81384523D01*
X141279000Y-81003571D01*
X141326619Y-80908333D01*
X141421857Y-80860714D01*
X141612333Y-80860714D01*
X141707571Y-80908333D01*
X141755190Y-81003571D01*
X141755190Y-81098809D01*
X141279000Y-81194047D01*
X142183761Y-81527380D02*
X142183761Y-80860714D01*
X142183761Y-81051190D02*
X142231380Y-80955952D01*
X142279000Y-80908333D01*
X142374238Y-80860714D01*
X142469476Y-80860714D01*
X142945666Y-81527380D02*
X142850428Y-81479761D01*
X142802809Y-81432142D01*
X142755190Y-81336904D01*
X142755190Y-81051190D01*
X142802809Y-80955952D01*
X142850428Y-80908333D01*
X142945666Y-80860714D01*
X143088523Y-80860714D01*
X143183761Y-80908333D01*
X143231380Y-80955952D01*
X143279000Y-81051190D01*
X143279000Y-81336904D01*
X143231380Y-81432142D01*
X143183761Y-81479761D01*
X143088523Y-81527380D01*
X142945666Y-81527380D01*
X127166523Y-71117380D02*
X126690333Y-71117380D01*
X126642714Y-71593571D01*
X126690333Y-71545952D01*
X126785571Y-71498333D01*
X127023666Y-71498333D01*
X127118904Y-71545952D01*
X127166523Y-71593571D01*
X127214142Y-71688809D01*
X127214142Y-71926904D01*
X127166523Y-72022142D01*
X127118904Y-72069761D01*
X127023666Y-72117380D01*
X126785571Y-72117380D01*
X126690333Y-72069761D01*
X126642714Y-72022142D01*
X127499857Y-71117380D02*
X127833190Y-72117380D01*
X128166523Y-71117380D01*
%TD*%
D12*
X62287500Y-51787500D03*
X109825000Y-69900000D03*
X95000000Y-62275000D03*
X79650000Y-53500000D03*
X114606581Y-73600000D03*
X43550000Y-53125000D03*
X55175000Y-66600000D03*
X34882581Y-74550000D03*
X89250000Y-78275000D03*
X119825000Y-88300000D03*
X105400000Y-84275000D03*
X73725000Y-68125000D03*
X120250000Y-119450000D03*
X118625000Y-89275000D03*
X104850000Y-104175000D03*
X126218885Y-96018885D03*
X83275000Y-52575000D03*
X116650000Y-72999500D03*
X117525000Y-72275000D03*
X119825000Y-70875000D03*
X119800000Y-69500000D03*
X114502559Y-99008762D03*
X120471040Y-102666252D03*
D13*
X112786093Y-95493973D03*
X117839040Y-103516299D03*
X115281120Y-101948803D03*
X111870559Y-99858809D03*
D12*
X92201860Y-54460731D03*
X96182081Y-58144186D03*
X98200000Y-52600000D03*
X103368309Y-54481111D03*
X93031691Y-50718889D03*
X96501860Y-93035731D03*
X100482081Y-96719186D03*
X107668309Y-93056111D03*
X97331691Y-89293889D03*
X102500000Y-91175000D03*
X76851860Y-44660731D03*
X80832081Y-48344186D03*
X88018309Y-44681111D03*
X77681691Y-40918889D03*
X82850000Y-42800000D03*
X95162697Y-111394263D03*
X98944686Y-115280979D03*
X101250000Y-109850000D03*
X96187223Y-107700979D03*
X106312777Y-111999021D03*
X70701860Y-60660731D03*
X74682081Y-64344186D03*
X81868309Y-60681111D03*
X76700000Y-58800000D03*
X71531691Y-56918889D03*
X102676860Y-77035731D03*
X106657081Y-80719186D03*
X103506691Y-73293889D03*
X108675000Y-75175000D03*
X113843309Y-77056111D03*
X108826860Y-61085731D03*
X112807081Y-64769186D03*
X109656691Y-57343889D03*
X114825000Y-59225000D03*
X119993309Y-61106111D03*
X86076860Y-70435731D03*
X90057081Y-74119186D03*
X86906691Y-66693889D03*
X97243309Y-70456111D03*
X92075000Y-68575000D03*
X52226860Y-58810731D03*
X56207081Y-62494186D03*
X58225000Y-56950000D03*
X63393309Y-58831111D03*
X53056691Y-55068889D03*
X46076860Y-74785731D03*
X50057081Y-78469186D03*
X46906691Y-71043889D03*
X57243309Y-74806111D03*
X52075000Y-72925000D03*
X64526860Y-76585731D03*
X68507081Y-80269186D03*
X75693309Y-76606111D03*
X65356691Y-72843889D03*
X70525000Y-74725000D03*
X130659000Y-71665000D03*
X130659000Y-74205000D03*
X130659000Y-76745000D03*
X130659000Y-79285000D03*
X130659000Y-81825000D03*
X130659000Y-84365000D03*
X130659000Y-86905000D03*
X130659000Y-89445000D03*
X130659000Y-91985000D03*
X133199000Y-92195000D03*
X135739000Y-92195000D03*
X138279000Y-92195000D03*
X140819000Y-92195000D03*
X143359000Y-92195000D03*
X145899000Y-91985000D03*
X145899000Y-89445000D03*
X145899000Y-86905000D03*
X145899000Y-84365000D03*
X145899000Y-81825000D03*
X145899000Y-79285000D03*
X145899000Y-76745000D03*
X145899000Y-74205000D03*
X145899000Y-71665000D03*
X109352460Y-123201472D03*
X111403070Y-128221930D03*
X119464087Y-127939087D03*
X115575000Y-124050000D03*
X111685913Y-120160913D03*
X58401860Y-42860731D03*
X62382081Y-46544186D03*
X69568309Y-42881111D03*
X59231691Y-39118889D03*
X64400000Y-41000000D03*
X41475017Y-37035731D03*
X45455238Y-40719186D03*
X47473157Y-35175000D03*
X42304848Y-33293889D03*
X52641466Y-37056111D03*
X79901860Y-86435731D03*
X83882081Y-90119186D03*
X80731691Y-82693889D03*
X85900000Y-84575000D03*
X91068309Y-86456111D03*
X30701860Y-64960731D03*
X34682081Y-68644186D03*
X41868309Y-64981111D03*
X36700000Y-63100000D03*
X31531691Y-61218889D03*
X24601860Y-80960731D03*
X28582081Y-84644186D03*
X30600000Y-79100000D03*
X35768309Y-80981111D03*
X25431691Y-77218889D03*
M02*
