%TF.GenerationSoftware,KiCad,Pcbnew,(6.0.11)*%
%TF.CreationDate,2024-04-13T23:12:42+09:00*%
%TF.ProjectId,haqua34_left,68617175-6133-4345-9f6c-6566742e6b69,rev?*%
%TF.SameCoordinates,Original*%
%TF.FileFunction,Soldermask,Top*%
%TF.FilePolarity,Negative*%
%FSLAX46Y46*%
G04 Gerber Fmt 4.6, Leading zero omitted, Abs format (unit mm)*
G04 Created by KiCad (PCBNEW (6.0.11)) date 2024-04-13 23:12:42*
%MOMM*%
%LPD*%
G01*
G04 APERTURE LIST*
G04 Aperture macros list*
%AMRoundRect*
0 Rectangle with rounded corners*
0 $1 Rounding radius*
0 $2 $3 $4 $5 $6 $7 $8 $9 X,Y pos of 4 corners*
0 Add a 4 corners polygon primitive as box body*
4,1,4,$2,$3,$4,$5,$6,$7,$8,$9,$2,$3,0*
0 Add four circle primitives for the rounded corners*
1,1,$1+$1,$2,$3*
1,1,$1+$1,$4,$5*
1,1,$1+$1,$6,$7*
1,1,$1+$1,$8,$9*
0 Add four rect primitives between the rounded corners*
20,1,$1+$1,$2,$3,$4,$5,0*
20,1,$1+$1,$4,$5,$6,$7,0*
20,1,$1+$1,$6,$7,$8,$9,0*
20,1,$1+$1,$8,$9,$2,$3,0*%
%AMHorizOval*
0 Thick line with rounded ends*
0 $1 width*
0 $2 $3 position (X,Y) of the first rounded end (center of the circle)*
0 $4 $5 position (X,Y) of the second rounded end (center of the circle)*
0 Add line between two ends*
20,1,$1,$2,$3,$4,$5,0*
0 Add two circle primitives to create the rounded ends*
1,1,$1,$2,$3*
1,1,$1,$4,$5*%
G04 Aperture macros list end*
%ADD10C,1.200000*%
%ADD11HorizOval,1.700000X-0.341056X0.208999X0.341056X-0.208999X0*%
%ADD12C,2.000000*%
%ADD13C,5.000000*%
%ADD14C,1.700000*%
%ADD15RoundRect,0.400050X-0.965950X-0.400050X0.965950X-0.400050X0.965950X0.400050X-0.965950X0.400050X0*%
%ADD16RoundRect,0.393700X-0.393700X-0.994300X0.393700X-0.994300X0.393700X0.994300X-0.393700X0.994300X0*%
%ADD17RoundRect,0.400000X-0.400000X-0.988000X0.400000X-0.988000X0.400000X0.988000X-0.400000X0.988000X0*%
%ADD18RoundRect,0.400000X-0.966000X-0.400000X0.966000X-0.400000X0.966000X0.400000X-0.966000X0.400000X0*%
G04 APERTURE END LIST*
D10*
%TO.C,J1*%
X114502559Y-99008762D03*
X120471040Y-102666252D03*
D11*
X112786093Y-95493973D03*
X117839040Y-103516299D03*
X115281120Y-101948803D03*
X111870559Y-99858809D03*
%TD*%
D12*
%TO.C,SW4*%
X92201860Y-54460731D03*
X96182081Y-58144186D03*
D13*
X98200000Y-52600000D03*
D14*
X103368309Y-54481111D03*
X93031691Y-50718889D03*
%TD*%
D12*
%TO.C,SW15*%
X96501860Y-93035731D03*
X100482081Y-96719186D03*
D14*
X107668309Y-93056111D03*
X97331691Y-89293889D03*
D13*
X102500000Y-91175000D03*
%TD*%
D12*
%TO.C,SW3*%
X76851860Y-44660731D03*
X80832081Y-48344186D03*
D14*
X88018309Y-44681111D03*
X77681691Y-40918889D03*
D13*
X82850000Y-42800000D03*
%TD*%
D12*
%TO.C,SW16*%
X95162697Y-111394263D03*
X98944686Y-115280979D03*
D13*
X101250000Y-109850000D03*
D14*
X96187223Y-107700979D03*
X106312777Y-111999021D03*
%TD*%
D12*
%TO.C,SW8*%
X70701860Y-60660731D03*
X74682081Y-64344186D03*
D14*
X81868309Y-60681111D03*
D13*
X76700000Y-58800000D03*
D14*
X71531691Y-56918889D03*
%TD*%
D12*
%TO.C,SW10*%
X102676860Y-77035731D03*
X106657081Y-80719186D03*
D14*
X103506691Y-73293889D03*
D13*
X108675000Y-75175000D03*
D14*
X113843309Y-77056111D03*
%TD*%
D12*
%TO.C,SW5*%
X108826860Y-61085731D03*
X112807081Y-64769186D03*
D14*
X109656691Y-57343889D03*
D13*
X114825000Y-59225000D03*
D14*
X119993309Y-61106111D03*
%TD*%
D12*
%TO.C,SW9*%
X86076860Y-70435731D03*
X90057081Y-74119186D03*
D14*
X86906691Y-66693889D03*
X97243309Y-70456111D03*
D13*
X92075000Y-68575000D03*
%TD*%
D12*
%TO.C,SW7*%
X52226860Y-58810731D03*
X56207081Y-62494186D03*
D13*
X58225000Y-56950000D03*
D14*
X63393309Y-58831111D03*
X53056691Y-55068889D03*
%TD*%
D12*
%TO.C,SW12*%
X46076860Y-74785731D03*
X50057081Y-78469186D03*
D14*
X46906691Y-71043889D03*
X57243309Y-74806111D03*
D13*
X52075000Y-72925000D03*
%TD*%
D12*
%TO.C,SW13*%
X64526860Y-76585731D03*
X68507081Y-80269186D03*
D14*
X75693309Y-76606111D03*
X65356691Y-72843889D03*
D13*
X70525000Y-74725000D03*
%TD*%
D15*
%TO.C,RZ1*%
X129993000Y-71665000D03*
X129993000Y-74205000D03*
X129993000Y-76745000D03*
X129993000Y-79285000D03*
X129993000Y-81825000D03*
X129993000Y-84365000D03*
X129993000Y-86905000D03*
X129993000Y-89445000D03*
X129993000Y-91985000D03*
D16*
X133199000Y-92883000D03*
X135739000Y-92883000D03*
X138279000Y-92883000D03*
X140819000Y-92883000D03*
D17*
X143359000Y-92883000D03*
D15*
X146565000Y-91985000D03*
X146565000Y-89445000D03*
X146565000Y-86905000D03*
X146565000Y-84365000D03*
D18*
X146565000Y-81825000D03*
X146565000Y-79285000D03*
X146565000Y-76745000D03*
X146565000Y-74205000D03*
X146565000Y-71665000D03*
%TD*%
D12*
%TO.C,SW17*%
X109352460Y-123201472D03*
X111403070Y-128221930D03*
D14*
X119464087Y-127939087D03*
D13*
X115575000Y-124050000D03*
D14*
X111685913Y-120160913D03*
%TD*%
D12*
%TO.C,SW2*%
X58401860Y-42860731D03*
X62382081Y-46544186D03*
D14*
X69568309Y-42881111D03*
X59231691Y-39118889D03*
D13*
X64400000Y-41000000D03*
%TD*%
D12*
%TO.C,SW1*%
X41475017Y-37035731D03*
X45455238Y-40719186D03*
D13*
X47473157Y-35175000D03*
D14*
X42304848Y-33293889D03*
X52641466Y-37056111D03*
%TD*%
D12*
%TO.C,SW14*%
X79901860Y-86435731D03*
X83882081Y-90119186D03*
D14*
X80731691Y-82693889D03*
D13*
X85900000Y-84575000D03*
D14*
X91068309Y-86456111D03*
%TD*%
D12*
%TO.C,SW6*%
X30701860Y-64960731D03*
X34682081Y-68644186D03*
D14*
X41868309Y-64981111D03*
D13*
X36700000Y-63100000D03*
D14*
X31531691Y-61218889D03*
%TD*%
D12*
%TO.C,SW11*%
X24601860Y-80960731D03*
X28582081Y-84644186D03*
D13*
X30600000Y-79100000D03*
D14*
X35768309Y-80981111D03*
X25431691Y-77218889D03*
%TD*%
M02*
