%TF.GenerationSoftware,KiCad,Pcbnew,(6.0.11)*%
%TF.CreationDate,2024-04-13T23:12:41+09:00*%
%TF.ProjectId,haqua34_left,68617175-6133-4345-9f6c-6566742e6b69,rev?*%
%TF.SameCoordinates,Original*%
%TF.FileFunction,Legend,Bot*%
%TF.FilePolarity,Positive*%
%FSLAX46Y46*%
G04 Gerber Fmt 4.6, Leading zero omitted, Abs format (unit mm)*
G04 Created by KiCad (PCBNEW (6.0.11)) date 2024-04-13 23:12:41*
%MOMM*%
%LPD*%
G01*
G04 APERTURE LIST*
G04 Aperture macros list*
%AMHorizOval*
0 Thick line with rounded ends*
0 $1 width*
0 $2 $3 position (X,Y) of the first rounded end (center of the circle)*
0 $4 $5 position (X,Y) of the second rounded end (center of the circle)*
0 Add line between two ends*
20,1,$1,$2,$3,$4,$5,0*
0 Add two circle primitives to create the rounded ends*
1,1,$1,$2,$3*
1,1,$1,$4,$5*%
G04 Aperture macros list end*
%ADD10C,0.200000*%
%ADD11C,0.150000*%
%ADD12C,0.350000*%
%ADD13HorizOval,1.000000X-0.213160X0.130625X0.213160X-0.130625X0*%
G04 APERTURE END LIST*
D10*
X141795238Y-95661904D02*
X141795238Y-96233333D01*
X141833333Y-96347619D01*
X141909523Y-96423809D01*
X142023809Y-96461904D01*
X142100000Y-96461904D01*
X141033333Y-96461904D02*
X141414285Y-96461904D01*
X141414285Y-95661904D01*
X140309523Y-96385714D02*
X140347619Y-96423809D01*
X140461904Y-96461904D01*
X140538095Y-96461904D01*
X140652380Y-96423809D01*
X140728571Y-96347619D01*
X140766666Y-96271428D01*
X140804761Y-96119047D01*
X140804761Y-96004761D01*
X140766666Y-95852380D01*
X140728571Y-95776190D01*
X140652380Y-95700000D01*
X140538095Y-95661904D01*
X140461904Y-95661904D01*
X140347619Y-95700000D01*
X140309523Y-95738095D01*
X139738095Y-95661904D02*
X139738095Y-96233333D01*
X139776190Y-96347619D01*
X139852380Y-96423809D01*
X139966666Y-96461904D01*
X140042857Y-96461904D01*
X138976190Y-96461904D02*
X139357142Y-96461904D01*
X139357142Y-95661904D01*
X138252380Y-96385714D02*
X138290476Y-96423809D01*
X138404761Y-96461904D01*
X138480952Y-96461904D01*
X138595238Y-96423809D01*
X138671428Y-96347619D01*
X138709523Y-96271428D01*
X138747619Y-96119047D01*
X138747619Y-96004761D01*
X138709523Y-95852380D01*
X138671428Y-95776190D01*
X138595238Y-95700000D01*
X138480952Y-95661904D01*
X138404761Y-95661904D01*
X138290476Y-95700000D01*
X138252380Y-95738095D01*
X137680952Y-95661904D02*
X137680952Y-96233333D01*
X137719047Y-96347619D01*
X137795238Y-96423809D01*
X137909523Y-96461904D01*
X137985714Y-96461904D01*
X136919047Y-96461904D02*
X137300000Y-96461904D01*
X137300000Y-95661904D01*
X136195238Y-96385714D02*
X136233333Y-96423809D01*
X136347619Y-96461904D01*
X136423809Y-96461904D01*
X136538095Y-96423809D01*
X136614285Y-96347619D01*
X136652380Y-96271428D01*
X136690476Y-96119047D01*
X136690476Y-96004761D01*
X136652380Y-95852380D01*
X136614285Y-95776190D01*
X136538095Y-95700000D01*
X136423809Y-95661904D01*
X136347619Y-95661904D01*
X136233333Y-95700000D01*
X136195238Y-95738095D01*
X135623809Y-95661904D02*
X135623809Y-96233333D01*
X135661904Y-96347619D01*
X135738095Y-96423809D01*
X135852380Y-96461904D01*
X135928571Y-96461904D01*
X134861904Y-96461904D02*
X135242857Y-96461904D01*
X135242857Y-95661904D01*
X134138095Y-96385714D02*
X134176190Y-96423809D01*
X134290476Y-96461904D01*
X134366666Y-96461904D01*
X134480952Y-96423809D01*
X134557142Y-96347619D01*
X134595238Y-96271428D01*
X134633333Y-96119047D01*
X134633333Y-96004761D01*
X134595238Y-95852380D01*
X134557142Y-95776190D01*
X134480952Y-95700000D01*
X134366666Y-95661904D01*
X134290476Y-95661904D01*
X134176190Y-95700000D01*
X134138095Y-95738095D01*
D11*
%TO.C,D2*%
X66250877Y-37086808D02*
X65234144Y-37248836D01*
X66173836Y-37590856D02*
X66515856Y-36651164D01*
X68668685Y-37168685D02*
X63594345Y-35321776D01*
X65576164Y-36309144D02*
X66250877Y-37086808D01*
X68155655Y-38578224D02*
X68668685Y-37168685D01*
X63594345Y-35321776D02*
X63081315Y-36731315D01*
X63081315Y-36731315D02*
X68155655Y-38578224D01*
X65234144Y-37248836D02*
X65576164Y-36309144D01*
%TO.C,D9*%
X96343685Y-64743685D02*
X91269345Y-62896776D01*
X93925877Y-64661808D02*
X92909144Y-64823836D01*
X93848836Y-65165856D02*
X94190856Y-64226164D01*
X95830655Y-66153224D02*
X96343685Y-64743685D01*
X90756315Y-64306315D02*
X95830655Y-66153224D01*
X93251164Y-63884144D02*
X93925877Y-64661808D01*
X91269345Y-62896776D02*
X90756315Y-64306315D01*
X92909144Y-64823836D02*
X93251164Y-63884144D01*
%TO.C,D10*%
X107869345Y-69496776D02*
X107356315Y-70906315D01*
X107356315Y-70906315D02*
X112430655Y-72753224D01*
X109509144Y-71423836D02*
X109851164Y-70484144D01*
X110525877Y-71261808D02*
X109509144Y-71423836D01*
X110448836Y-71765856D02*
X110790856Y-70826164D01*
X109851164Y-70484144D02*
X110525877Y-71261808D01*
X112430655Y-72753224D02*
X112943685Y-71343685D01*
X112943685Y-71343685D02*
X107869345Y-69496776D01*
%TO.C,D8*%
X78600877Y-54911808D02*
X77584144Y-55073836D01*
X78523836Y-55415856D02*
X78865856Y-54476164D01*
X80505655Y-56403224D02*
X81018685Y-54993685D01*
X77584144Y-55073836D02*
X77926164Y-54134144D01*
X75431315Y-54556315D02*
X80505655Y-56403224D01*
X77926164Y-54134144D02*
X78600877Y-54911808D01*
X81018685Y-54993685D02*
X75944345Y-53146776D01*
X75944345Y-53146776D02*
X75431315Y-54556315D01*
%TO.C,D13*%
X71701164Y-70034144D02*
X72375877Y-70811808D01*
X69719345Y-69046776D02*
X69206315Y-70456315D01*
X69206315Y-70456315D02*
X74280655Y-72303224D01*
X72298836Y-71315856D02*
X72640856Y-70376164D01*
X71359144Y-70973836D02*
X71701164Y-70034144D01*
X74793685Y-70893685D02*
X69719345Y-69046776D01*
X72375877Y-70811808D02*
X71359144Y-70973836D01*
X74280655Y-72303224D02*
X74793685Y-70893685D01*
%TO.C,D6*%
X35919345Y-57421776D02*
X35406315Y-58831315D01*
X40993685Y-59268685D02*
X35919345Y-57421776D01*
X37901164Y-58409144D02*
X38575877Y-59186808D01*
X38498836Y-59690856D02*
X38840856Y-58751164D01*
X40480655Y-60678224D02*
X40993685Y-59268685D01*
X35406315Y-58831315D02*
X40480655Y-60678224D01*
X38575877Y-59186808D02*
X37559144Y-59348836D01*
X37559144Y-59348836D02*
X37901164Y-58409144D01*
%TO.C,D3*%
X86630655Y-40378224D02*
X87143685Y-38968685D01*
X84648836Y-39390856D02*
X84990856Y-38451164D01*
X82069345Y-37121776D02*
X81556315Y-38531315D01*
X83709144Y-39048836D02*
X84051164Y-38109144D01*
X84051164Y-38109144D02*
X84725877Y-38886808D01*
X81556315Y-38531315D02*
X86630655Y-40378224D01*
X84725877Y-38886808D02*
X83709144Y-39048836D01*
X87143685Y-38968685D02*
X82069345Y-37121776D01*
%TO.C,D15*%
X106793685Y-87343685D02*
X101719345Y-85496776D01*
X104298836Y-87765856D02*
X104640856Y-86826164D01*
X103701164Y-86484144D02*
X104375877Y-87261808D01*
X101719345Y-85496776D02*
X101206315Y-86906315D01*
X106280655Y-88753224D02*
X106793685Y-87343685D01*
X104375877Y-87261808D02*
X103359144Y-87423836D01*
X103359144Y-87423836D02*
X103701164Y-86484144D01*
X101206315Y-86906315D02*
X106280655Y-88753224D01*
%TO.C,D11*%
X31801164Y-74409144D02*
X32475877Y-75186808D01*
X29306315Y-74831315D02*
X34380655Y-76678224D01*
X29819345Y-73421776D02*
X29306315Y-74831315D01*
X31459144Y-75348836D02*
X31801164Y-74409144D01*
X32398836Y-75690856D02*
X32740856Y-74751164D01*
X34893685Y-75268685D02*
X29819345Y-73421776D01*
X34380655Y-76678224D02*
X34893685Y-75268685D01*
X32475877Y-75186808D02*
X31459144Y-75348836D01*
%TO.C,D4*%
X96906315Y-48331315D02*
X101980655Y-50178224D01*
X99998836Y-49190856D02*
X100340856Y-48251164D01*
X100075877Y-48686808D02*
X99059144Y-48848836D01*
X99401164Y-47909144D02*
X100075877Y-48686808D01*
X99059144Y-48848836D02*
X99401164Y-47909144D01*
X101980655Y-50178224D02*
X102493685Y-48768685D01*
X102493685Y-48768685D02*
X97419345Y-46921776D01*
X97419345Y-46921776D02*
X96906315Y-48331315D01*
%TO.C,D1*%
X48676164Y-30484144D02*
X49350877Y-31261808D01*
X49350877Y-31261808D02*
X48334144Y-31423836D01*
X49273836Y-31765856D02*
X49615856Y-30826164D01*
X51255655Y-32753224D02*
X51768685Y-31343685D01*
X46694345Y-29496776D02*
X46181315Y-30906315D01*
X51768685Y-31343685D02*
X46694345Y-29496776D01*
X48334144Y-31423836D02*
X48676164Y-30484144D01*
X46181315Y-30906315D02*
X51255655Y-32753224D01*
%TO.C,D7*%
X60023836Y-53540856D02*
X60365856Y-52601164D01*
X56931315Y-52681315D02*
X62005655Y-54528224D01*
X60100877Y-53036808D02*
X59084144Y-53198836D01*
X62518685Y-53118685D02*
X57444345Y-51271776D01*
X59084144Y-53198836D02*
X59426164Y-52259144D01*
X57444345Y-51271776D02*
X56931315Y-52681315D01*
X59426164Y-52259144D02*
X60100877Y-53036808D01*
X62005655Y-54528224D02*
X62518685Y-53118685D01*
%TO.C,D14*%
X87698836Y-81190856D02*
X88040856Y-80251164D01*
X84606315Y-80331315D02*
X89680655Y-82178224D01*
X87775877Y-80686808D02*
X86759144Y-80848836D01*
X87101164Y-79909144D02*
X87775877Y-80686808D01*
X90193685Y-80768685D02*
X85119345Y-78921776D01*
X85119345Y-78921776D02*
X84606315Y-80331315D01*
X89680655Y-82178224D02*
X90193685Y-80768685D01*
X86759144Y-80848836D02*
X87101164Y-79909144D01*
%TO.C,D17*%
X121064518Y-122403858D02*
X117246142Y-118585482D01*
X118625000Y-121732107D02*
X119332107Y-121025000D01*
X118907843Y-121307843D02*
X117917893Y-121025000D01*
X117246142Y-118585482D02*
X116185482Y-119646142D01*
X116185482Y-119646142D02*
X120003858Y-123464518D01*
X117917893Y-121025000D02*
X118625000Y-120317893D01*
X120003858Y-123464518D02*
X121064518Y-122403858D01*
X118625000Y-120317893D02*
X118907843Y-121307843D01*
%TO.C,D16*%
X100146589Y-105510405D02*
X105117315Y-107620353D01*
X100732685Y-104129647D02*
X100146589Y-105510405D01*
X103293202Y-106031292D02*
X102269382Y-106139887D01*
X102660113Y-105219382D02*
X103293202Y-106031292D01*
X102269382Y-106139887D02*
X102660113Y-105219382D01*
X103189887Y-106530618D02*
X103580618Y-105610113D01*
X105117315Y-107620353D02*
X105703411Y-106239595D01*
X105703411Y-106239595D02*
X100732685Y-104129647D01*
%TO.C,D12*%
X51294345Y-67246776D02*
X50781315Y-68656315D01*
X52934144Y-69173836D02*
X53276164Y-68234144D01*
X53873836Y-69515856D02*
X54215856Y-68576164D01*
X56368685Y-69093685D02*
X51294345Y-67246776D01*
X55855655Y-70503224D02*
X56368685Y-69093685D01*
X53950877Y-69011808D02*
X52934144Y-69173836D01*
X53276164Y-68234144D02*
X53950877Y-69011808D01*
X50781315Y-68656315D02*
X55855655Y-70503224D01*
%TO.C,D5*%
X116026164Y-54559144D02*
X116700877Y-55336808D01*
X116623836Y-55840856D02*
X116965856Y-54901164D01*
X118605655Y-56828224D02*
X119118685Y-55418685D01*
X113531315Y-54981315D02*
X118605655Y-56828224D01*
X116700877Y-55336808D02*
X115684144Y-55498836D01*
X119118685Y-55418685D02*
X114044345Y-53571776D01*
X115684144Y-55498836D02*
X116026164Y-54559144D01*
X114044345Y-53571776D02*
X113531315Y-54981315D01*
%TD*%
D12*
X62287500Y-51787500D03*
X109825000Y-69900000D03*
X95000000Y-62275000D03*
X79650000Y-53500000D03*
X114606581Y-73600000D03*
X43550000Y-53125000D03*
X55175000Y-66600000D03*
X34882581Y-74550000D03*
X89250000Y-78275000D03*
X119825000Y-88300000D03*
X105400000Y-84275000D03*
X73725000Y-68125000D03*
X120250000Y-119450000D03*
X118625000Y-89275000D03*
X104850000Y-104175000D03*
X126218885Y-96018885D03*
X83275000Y-52575000D03*
X116650000Y-72999500D03*
X117525000Y-72275000D03*
X119825000Y-70875000D03*
X119800000Y-69500000D03*
X114502559Y-99008762D03*
X120471040Y-102666252D03*
D13*
X112786093Y-95493973D03*
X117839040Y-103516299D03*
X115281120Y-101948803D03*
X111870559Y-99858809D03*
D12*
X92201860Y-54460731D03*
X96182081Y-58144186D03*
X98200000Y-52600000D03*
X103368309Y-54481111D03*
X93031691Y-50718889D03*
X96501860Y-93035731D03*
X100482081Y-96719186D03*
X107668309Y-93056111D03*
X97331691Y-89293889D03*
X102500000Y-91175000D03*
X76851860Y-44660731D03*
X80832081Y-48344186D03*
X88018309Y-44681111D03*
X77681691Y-40918889D03*
X82850000Y-42800000D03*
X95162697Y-111394263D03*
X98944686Y-115280979D03*
X101250000Y-109850000D03*
X96187223Y-107700979D03*
X106312777Y-111999021D03*
X70701860Y-60660731D03*
X74682081Y-64344186D03*
X81868309Y-60681111D03*
X76700000Y-58800000D03*
X71531691Y-56918889D03*
X102676860Y-77035731D03*
X106657081Y-80719186D03*
X103506691Y-73293889D03*
X108675000Y-75175000D03*
X113843309Y-77056111D03*
X108826860Y-61085731D03*
X112807081Y-64769186D03*
X109656691Y-57343889D03*
X114825000Y-59225000D03*
X119993309Y-61106111D03*
X86076860Y-70435731D03*
X90057081Y-74119186D03*
X86906691Y-66693889D03*
X97243309Y-70456111D03*
X92075000Y-68575000D03*
X52226860Y-58810731D03*
X56207081Y-62494186D03*
X58225000Y-56950000D03*
X63393309Y-58831111D03*
X53056691Y-55068889D03*
X46076860Y-74785731D03*
X50057081Y-78469186D03*
X46906691Y-71043889D03*
X57243309Y-74806111D03*
X52075000Y-72925000D03*
X64526860Y-76585731D03*
X68507081Y-80269186D03*
X75693309Y-76606111D03*
X65356691Y-72843889D03*
X70525000Y-74725000D03*
X130659000Y-71665000D03*
X130659000Y-74205000D03*
X130659000Y-76745000D03*
X130659000Y-79285000D03*
X130659000Y-81825000D03*
X130659000Y-84365000D03*
X130659000Y-86905000D03*
X130659000Y-89445000D03*
X130659000Y-91985000D03*
X133199000Y-92195000D03*
X135739000Y-92195000D03*
X138279000Y-92195000D03*
X140819000Y-92195000D03*
X143359000Y-92195000D03*
X145899000Y-91985000D03*
X145899000Y-89445000D03*
X145899000Y-86905000D03*
X145899000Y-84365000D03*
X145899000Y-81825000D03*
X145899000Y-79285000D03*
X145899000Y-76745000D03*
X145899000Y-74205000D03*
X145899000Y-71665000D03*
X109352460Y-123201472D03*
X111403070Y-128221930D03*
X119464087Y-127939087D03*
X115575000Y-124050000D03*
X111685913Y-120160913D03*
X58401860Y-42860731D03*
X62382081Y-46544186D03*
X69568309Y-42881111D03*
X59231691Y-39118889D03*
X64400000Y-41000000D03*
X41475017Y-37035731D03*
X45455238Y-40719186D03*
X47473157Y-35175000D03*
X42304848Y-33293889D03*
X52641466Y-37056111D03*
X79901860Y-86435731D03*
X83882081Y-90119186D03*
X80731691Y-82693889D03*
X85900000Y-84575000D03*
X91068309Y-86456111D03*
X30701860Y-64960731D03*
X34682081Y-68644186D03*
X41868309Y-64981111D03*
X36700000Y-63100000D03*
X31531691Y-61218889D03*
X24601860Y-80960731D03*
X28582081Y-84644186D03*
X30600000Y-79100000D03*
X35768309Y-80981111D03*
X25431691Y-77218889D03*
M02*
