M48
; DRILL file {KiCad (6.0.11)} date Sat Apr 13 23:15:29 2024
; FORMAT={-:-/ absolute / metric / decimal}
; #@! TF.CreationDate,2024-04-13T23:15:29+09:00
; #@! TF.GenerationSoftware,Kicad,Pcbnew,(6.0.11)
; #@! TF.FileFunction,NonPlated,1,2,NPTH
FMAT,2
METRIC
; #@! TA.AperFunction,NonPlated,NPTH,ComponentDrill
T1C1.219
; #@! TA.AperFunction,NonPlated,NPTH,ComponentDrill
T2C1.223
; #@! TA.AperFunction,NonPlated,NPTH,ComponentDrill
T3C1.700
; #@! TA.AperFunction,NonPlated,NPTH,ComponentDrill
T4C2.000
; #@! TA.AperFunction,NonPlated,NPTH,ComponentDrill
T5C2.400
; #@! TA.AperFunction,NonPlated,NPTH,ComponentDrill
T6C5.000
%
G90
G05
T1
X29.284Y-68.19
X29.284Y-70.73
X29.284Y-73.27
X29.284Y-75.81
X29.284Y-78.35
X29.284Y-80.89
X29.284Y-85.97
X31.824Y-88.713
X34.364Y-88.713
X36.904Y-88.713
X39.444Y-88.713
X41.984Y-88.713
X44.524Y-68.19
X44.524Y-70.73
X44.524Y-73.27
X44.524Y-75.81
X44.524Y-78.35
X44.524Y-80.89
X44.524Y-83.43
X44.524Y-85.97
X44.524Y-88.51
T2
X29.284Y-83.43
X29.284Y-88.51
T3
X55.257Y-57.606
X55.789Y-124.442
X61.409Y-73.589
X63.567Y-116.664
X65.593Y-53.844
X67.559Y-89.564
X68.937Y-108.499
X71.745Y-69.826
X71.857Y-51.006
X77.895Y-85.801
X78.009Y-66.989
X79.063Y-104.201
X82.193Y-47.244
X84.184Y-82.939
X87.232Y-41.181
X88.345Y-63.226
X93.384Y-57.164
X94.52Y-79.176
X97.568Y-37.419
X99.559Y-73.139
X103.72Y-53.401
X105.684Y-39.364
X109.895Y-69.376
X111.857Y-55.356
X116.02Y-35.601
X118.009Y-71.314
X122.193Y-51.594
X122.609Y-33.564
X128.345Y-67.551
X132.945Y-29.801
X133.359Y-61.514
X139.557Y-77.481
X143.695Y-57.751
X149.893Y-73.719
T5
X57.026Y-61.006
X58.83Y-126.776
X62.443Y-61.269
X63.178Y-76.989
X63.85Y-124.725
X68.595Y-77.252
X69.328Y-92.964
X70.882Y-111.802
X73.626Y-54.406
X74.745Y-93.227
X76.305Y-111.781
X79.043Y-54.669
X79.778Y-70.389
X85.195Y-70.652
X85.953Y-86.339
X89.001Y-44.581
X91.37Y-86.602
X94.418Y-44.844
X95.153Y-60.564
X100.57Y-60.827
X101.328Y-76.539
X106.745Y-76.802
X107.453Y-42.764
X112.87Y-43.027
X113.626Y-58.756
X119.043Y-59.019
X119.778Y-74.714
X124.378Y-36.964
X125.195Y-74.977
X129.795Y-37.227
X135.128Y-64.914
X140.545Y-65.177
X141.326Y-80.881
X146.743Y-81.144
T6
X59.678Y-120.553
X60.425Y-55.725
X66.577Y-71.708
X72.727Y-87.683
X74.0Y-106.35
X77.025Y-49.125
X83.177Y-65.108
X89.352Y-81.058
X92.4Y-39.3
X98.552Y-55.283
X104.727Y-71.258
X110.852Y-37.483
X117.025Y-53.475
X123.177Y-69.433
X127.777Y-31.683
X138.527Y-59.633
X144.725Y-75.6
T4
G00X54.753Y-96.76
M15
G01X55.435Y-96.342
M16
G05
G00X57.311Y-95.193
M15
G01X57.993Y-94.775
M16
G05
G00X60.721Y-93.103
M15
G01X61.404Y-92.685
M16
G05
G00X64.195Y-95.9
M15
G01X64.877Y-95.482
M16
G05
T5
G00X57.792Y-116.333
M15
G01X55.458Y-118.667
M16
G05
G00X60.499Y-51.103
M15
G01X57.398Y-52.232
M16
G05
G00X66.65Y-67.086
M15
G01X63.55Y-68.214
M16
G05
G00X72.8Y-83.061
M15
G01X69.7Y-84.189
M16
G05
G00X73.832Y-101.731
M15
G01X70.794Y-103.02
M16
G05
G00X77.099Y-44.503
M15
G01X73.998Y-45.632
M16
G05
G00X83.25Y-60.486
M15
G01X80.15Y-61.614
M16
G05
G00X89.425Y-76.436
M15
G01X86.325Y-77.564
M16
G05
G00X92.474Y-34.678
M15
G01X89.373Y-35.807
M16
G05
G00X98.625Y-50.661
M15
G01X95.525Y-51.789
M16
G05
G00X104.8Y-66.636
M15
G01X101.7Y-67.764
M16
G05
G00X110.925Y-32.861
M15
G01X107.825Y-33.989
M16
G05
G00X117.099Y-48.853
M15
G01X113.998Y-49.982
M16
G05
G00X123.25Y-64.811
M15
G01X120.15Y-65.939
M16
G05
G00X127.85Y-27.061
M15
G01X124.75Y-28.189
M16
G05
G00X138.6Y-55.011
M15
G01X135.5Y-56.139
M16
G05
G00X144.799Y-70.978
M15
G01X141.698Y-72.107
M16
G05
T0
M30
